<?xml version="1.0" standalone="no"?>
<!DOCTYPE svg PUBLIC "-//W3C//DTD SVG 20010904//EN"
 "http://www.w3.org/TR/2001/REC-SVG-20010904/DTD/svg10.dtd">
<svg version="1.0" xmlns="http://www.w3.org/2000/svg"
 width="1144.432323pt" height="171.731909pt" viewBox="0 0 1144.432323 171.731909"
 preserveAspectRatio="xMidYMid meet">
<metadata>
Created by potrace 1.16, written by Peter Selinger 2001-2019
</metadata>
<g transform="translate(-5.712303,177.473342) scale(0.100000,-0.100000)"
fill="#000000" stroke="none">
<path d="M4645 1759 c-4 -6 2 -17 14 -25 38 -27 36 -124 -3 -124 -18 0 -24 18
-32 86 -6 46 -10 54 -23 47 -20 -10 -99 -9 -178 2 -67 8 -94 -9 -33 -21 35 -8
37 -15 10 -32 -20 -12 -19 -14 17 -47 34 -31 35 -35 18 -40 -69 -22 -106 -46
-100 -65 5 -15 -4 -26 -37 -50 -51 -36 -126 -131 -133 -168 -3 -15 -10 -41
-15 -58 -14 -42 -12 -65 5 -88 38 -50 16 -68 -32 -26 -41 37 -94 22 -69 -19 3
-5 -1 -32 -11 -60 -31 -97 -83 -49 -83 79 0 81 -12 90 -40 27 -17 -37 -18 -54
-11 -127 7 -66 6 -91 -5 -112 -18 -34 -17 -66 1 -98 8 -14 14 -42 15 -62 0
-20 5 -49 12 -65 6 -15 12 -50 12 -78 1 -27 5 -58 10 -68 12 -26 -5 -21 -46
13 -31 26 -39 40 -44 80 -4 27 -12 54 -19 60 -9 8 -10 20 -3 48 5 20 12 47 15
60 12 48 -27 100 -51 67 -10 -14 -20 -9 -75 30 -76 53 -120 64 -165 42 -31
-16 -31 -16 -4 -16 15 -1 30 -5 33 -11 3 -5 20 -13 37 -18 47 -12 74 -88 51
-145 -20 -49 -4 -67 60 -67 47 0 48 -24 2 -49 -52 -28 -129 -16 -171 25 -61
62 -69 81 -68 165 1 92 -21 96 -59 11 -91 -205 141 -419 343 -317 65 33 71 32
114 -15 124 -137 259 176 145 334 -62 86 4 131 70 47 119 -150 381 -81 399
107 7 82 -65 131 -76 51 -12 -78 -119 -69 -162 13 -68 130 52 331 219 369 39
9 81 -4 81 -25 0 -69 105 -95 167 -42 106 92 239 -105 260 -386 6 -75 -4 -74
-65 10 -34 47 -64 76 -98 95 -127 69 -145 77 -155 71 -7 -4 3 -21 23 -43 81
-85 79 -211 -3 -211 -51 0 -152 -104 -120 -124 5 -3 18 9 29 28 65 110 138 58
130 -94 -3 -61 -1 -65 19 -68 58 -8 91 159 43 223 -4 6 -11 44 -15 85 -3 41
-13 86 -21 102 -32 61 13 52 67 -14 107 -135 118 -478 14 -452 -16 4 -27 -1
-36 -13 -8 -11 -23 -24 -34 -31 -11 -6 -31 -32 -46 -59 -18 -35 -37 -54 -70
-71 -24 -12 -45 -27 -47 -32 -9 -27 -264 -142 -279 -126 -15 15 9 38 32 32 21
-5 27 -2 37 21 7 16 21 38 32 50 28 32 14 39 -20 10 -49 -41 -174 -87 -234
-87 -41 0 -100 -24 -95 -39 10 -26 -35 -40 -64 -22 -12 8 -12 12 -2 25 12 14
9 16 -28 16 -28 0 -44 -5 -47 -15 -8 -19 -34 -20 -34 -1 0 21 -18 30 -80 38
-203 25 -435 150 -490 263 -22 45 -61 75 -98 75 -26 0 -228 103 -261 132 -14
14 -37 30 -51 36 -14 7 -44 25 -67 40 -94 61 -159 105 -183 123 -14 11 -61 44
-105 73 -165 111 -165 118 0 81 151 -34 412 -19 530 31 152 63 281 319 222
439 -52 105 -78 120 -70 39 5 -46 3 -60 -16 -84 -17 -24 -19 -33 -10 -48 16
-25 -15 -90 -49 -103 -13 -5 -44 -27 -68 -48 -112 -98 -488 -156 -599 -93 -34
20 -97 42 -116 42 -11 0 -27 4 -37 9 -9 6 -48 21 -87 35 -145 53 -288 137
-297 174 -7 27 18 62 45 63 20 1 20 2 2 6 -11 3 -39 23 -64 44 -52 46 -74 51
-65 14 11 -43 -4 -75 -41 -91 -19 -8 -39 -23 -45 -34 -12 -22 -60 -22 -143 1
-64 17 -264 28 -300 16 -73 -23 -80 -39 -22 -48 99 -16 199 -49 254 -86 171
-112 207 -139 269 -202 132 -137 222 -291 183 -316 -18 -11 -12 -25 13 -35 79
-30 80 -325 1 -467 -55 -100 -137 -133 -143 -58 -3 39 -16 65 -33 65 -12 0
-11 -37 1 -61 34 -63 -54 -123 -142 -95 -76 23 -64 -29 15 -62 63 -27 257 -5
257 29 0 3 17 18 38 31 109 73 186 372 137 534 -8 27 -15 57 -15 66 0 23 -85
204 -99 213 -13 7 -15 42 -3 49 42 26 304 -172 386 -291 113 -167 131 -365 28
-319 -153 69 -187 -212 -36 -300 224 -131 425 213 284 485 -39 73 -23 79 52
20 60 -49 118 -95 270 -215 29 -23 60 -55 69 -70 14 -26 22 -30 82 -35 51 -4
77 -13 114 -37 322 -210 873 -326 1206 -253 349 77 504 123 690 205 235 104
390 135 439 89 69 -65 187 -57 272 17 45 40 78 32 102 -25 41 -100 -17 -170
-111 -131 -40 17 -55 14 -55 -10 0 -35 115 -56 189 -34 184 52 274 254 191
424 -38 75 -100 133 -100 93 0 -24 -2 -25 -32 -16 -42 12 -40 12 -33 -10 5
-16 2 -18 -16 -14 -23 6 -23 6 1 -27 22 -31 22 -34 6 -46 -24 -17 -30 -112
-10 -159 17 -43 17 -45 -1 -45 -24 0 -84 72 -96 114 -13 47 -55 116 -70 116
-7 0 -8 -7 -3 -18 22 -49 17 -112 -9 -112 -14 0 -27 -5 -29 -12 -3 -7 -15 -3
-35 12 -17 12 -29 28 -26 36 2 7 -5 17 -16 23 -24 13 -74 15 -66 2 3 -5 1 -12
-4 -15 -14 -9 -41 4 -41 20 0 47 -154 24 -345 -51 -64 -26 -119 -44 -122 -42
-9 10 202 208 244 228 24 12 57 32 72 45 45 37 129 92 154 100 84 26 186 67
182 74 -5 8 -129 -33 -207 -69 -113 -51 -98 -16 72 179 155 177 202 208 260
175 83 -48 165 25 158 140 -4 60 -2 77 11 89 25 23 163 86 188 86 12 0 34 5
50 11 154 63 514 22 595 -67 29 -33 56 -107 50 -142 -4 -31 2 -37 34 -33 7 1
17 -13 23 -30 15 -44 35 -32 39 24 10 148 -138 310 -327 360 -13 3 -25 14 -28
25 -3 15 -17 21 -54 26 -49 7 -69 26 -26 26 29 0 51 15 43 29 -9 13 -118 15
-160 2 -17 -6 -74 -18 -126 -29 -181 -37 -254 -67 -440 -181 -23 -14 -52 -21
-84 -21 -71 0 -116 -36 -116 -91 0 -56 -5 -62 -120 -164 -102 -90 -296 -308
-379 -423 -56 -80 -83 -77 -50 5 7 15 20 108 29 205 25 254 119 420 197 347
68 -65 223 -9 262 94 48 125 -66 266 -215 267 -60 0 -59 -5 22 -84 80 -78 92
-108 54 -146 -27 -27 -94 -27 -112 -2 -7 11 -37 25 -65 32 -54 14 -75 80 -44
138 10 18 -90 25 -117 8 -16 -10 -70 -89 -82 -120 -13 -35 2 -33 23 4 18 30
37 40 37 19 0 -6 6 -17 14 -24 36 -36 30 -103 -14 -162 -50 -65 -60 -60 -60
35 0 62 -12 82 -24 40 -3 -13 -6 -62 -6 -110 0 -51 -4 -88 -10 -88 -10 0 -49
60 -96 145 -26 48 -133 152 -205 199 -37 24 -79 61 -95 82 -41 55 -99 76 -119
43z m1326 -296 c60 -35 40 -84 -28 -67 -45 11 -79 58 -53 74 22 14 48 12 81
-7z m-995 -58 c21 -31 48 -68 60 -83 33 -43 60 -173 74 -367 8 -107 7 -124 -9
-160 -10 -22 -30 -66 -45 -97 -44 -97 -59 -48 -22 67 20 61 39 201 32 231 -4
15 -9 61 -12 101 -4 68 -11 86 -74 209 -39 75 -70 139 -70 145 0 25 31 3 66
-46z m2109 -21 c24 -59 17 -92 -13 -62 -11 11 -18 98 -7 98 3 0 12 -16 20 -36z
m-5185 -54 c0 -5 -6 -10 -14 -10 -8 0 -18 5 -21 10 -3 6 3 10 14 10 12 0 21
-4 21 -10z m105 -30 c4 -6 4 -18 1 -27 -7 -18 -36 0 -36 23 0 16 26 19 35 4z
m465 -285 c7 -9 11 -18 8 -20 -8 -9 -36 5 -42 21 -7 19 18 18 34 -1z m209
-337 c30 -73 37 -155 17 -193 -9 -16 -16 -46 -17 -65 -2 -99 -36 -124 -162
-122 -60 1 -87 13 -87 39 0 8 -7 30 -16 49 -23 49 -1 84 55 84 40 0 42 -3 65
-72 3 -10 11 -18 19 -18 53 0 85 114 68 238 -17 122 17 157 58 60z m599 -98
c4 -26 -20 -50 -50 -50 -22 0 -23 28 -2 58 20 29 48 25 52 -8z m1591 -126 c13
-12 -84 -98 -147 -131 -40 -21 -84 -52 -97 -69 -25 -32 -93 -59 -125 -49 -10
3 -21 1 -25 -5 -3 -5 -17 -10 -31 -10 -33 0 -29 34 4 38 12 2 22 7 22 12 0 5
10 12 23 16 40 12 181 110 232 162 47 47 112 64 144 36z m110 -120 c14 3 36 8
49 12 46 13 21 -18 -35 -43 -249 -110 -545 -174 -333 -72 52 26 129 69 170 97
75 51 75 51 99 26 18 -20 30 -25 50 -20z m-3048 -97 c-13 -12 -20 -15 -16 -7
14 26 28 41 33 35 3 -3 -5 -16 -17 -28z m2280 16 c2 -5 -17 -9 -43 -11 -57 -4
-66 15 -10 21 39 4 47 2 53 -10z"/>
<path d="M6923 1754 c-3 -8 -1 -20 6 -27 6 -6 11 -19 11 -29 0 -10 5 -18 10
-18 6 0 10 7 10 15 0 16 24 29 75 40 39 9 18 20 -53 28 -42 5 -54 3 -59 -9z"/>
<path d="M6810 1749 c-24 -10 -24 -11 -6 -25 24 -17 28 -17 51 -1 36 27 3 45
-45 26z"/>
<path d="M366 1742 c-14 -13 -4 -43 18 -57 66 -44 105 -185 75 -276 -16 -47
-17 -62 -7 -78 14 -23 6 -36 -52 -76 -27 -19 -45 -25 -57 -20 -10 5 -25 7 -33
6 -13 -3 -13 0 1 15 22 26 62 142 55 160 -9 23 -23 9 -58 -61 -17 -35 -64
-104 -103 -152 -119 -145 -164 -259 -143 -359 12 -54 16 -54 57 -3 107 132
272 103 395 -69 46 -64 50 -96 6 -52 -47 47 -189 -2 -190 -66 0 -26 -50 -74
-77 -74 -27 0 -124 50 -130 67 -8 20 -23 16 -23 -6 0 -11 -5 -23 -10 -26 -37
-23 62 -144 133 -163 77 -22 171 19 217 93 31 51 47 42 87 -50 112 -258 149
-300 324 -371 344 -141 839 98 839 404 0 13 7 48 16 78 16 56 15 69 -16 284
-5 35 -24 85 -52 135 -61 111 -76 133 -133 189 -40 40 -47 50 -32 54 36 8 241
-132 251 -172 3 -14 17 -37 29 -53 34 -40 49 -90 36 -115 -6 -10 -8 -31 -5
-46 3 -15 -1 -52 -9 -82 -29 -107 -19 -154 46 -225 38 -41 43 -44 59 -30 9 8
37 22 61 30 104 37 201 202 139 240 -29 18 -58 -7 -72 -63 -13 -56 -14 -57
-50 -60 -42 -4 -45 2 -25 51 8 19 11 40 6 52 -4 11 -8 32 -8 48 -1 20 -8 30
-26 37 -15 6 -25 17 -25 29 0 11 -13 34 -29 50 -15 16 -32 46 -35 66 -8 42
-80 157 -121 195 -15 14 -40 44 -56 66 -31 45 -111 104 -141 104 -10 0 -18 4
-18 10 0 14 -39 32 -85 41 -22 4 -65 15 -95 23 -62 18 -399 23 -416 6 -14 -14
-76 -17 -81 -4 -5 14 150 69 237 84 68 13 147 37 167 53 7 5 30 6 51 2 40 -6
92 7 92 25 0 12 -125 14 -148 1 -9 -5 -63 -14 -119 -20 -145 -15 -285 -64
-417 -145 -71 -43 -96 -46 -96 -11 0 132 -149 342 -204 287z m782 -452 c129
-50 280 -188 312 -286 12 -35 24 -42 36 -22 5 7 11 5 21 -7 17 -25 17 -35 -3
-35 -14 0 -16 -8 -11 -51 8 -62 13 -69 31 -43 14 18 15 18 21 2 11 -27 22 -22
29 14 14 68 46 -34 46 -145 0 -96 -16 -170 -41 -193 -11 -10 -19 -30 -19 -49
0 -32 -71 -126 -135 -178 -157 -126 -467 -134 -624 -15 -13 10 -31 18 -41 18
-50 0 -153 120 -120 140 9 6 11 18 5 46 -5 22 -7 87 -6 146 3 126 -4 168 -27
168 -10 0 -51 29 -91 65 -73 64 -105 79 -188 92 -75 10 -47 60 100 173 229
178 499 239 705 160z m-892 -177 c-24 -43 -54 -78 -61 -71 -11 11 4 45 36 79
34 37 47 33 25 -8z"/>
<path d="M913 1004 c-25 -11 -12 -25 20 -22 17 2 32 8 32 13 0 11 -33 17 -52
9z"/>
<path d="M1099 954 c-11 -13 -6 -21 29 -54 40 -36 53 -72 32 -85 -5 -3 -10
-26 -10 -51 0 -50 -35 -94 -74 -94 -12 0 -32 -7 -44 -16 -26 -18 -52 -12 -52
10 0 17 34 39 44 29 3 -3 6 -2 6 4 0 40 -137 -1 -199 -58 -43 -40 -32 -176 17
-232 96 -106 107 -115 176 -136 163 -50 329 -6 401 109 14 22 41 50 60 62 41
27 57 59 49 96 -16 72 -20 75 -61 42 -14 -11 -35 -20 -47 -20 -12 0 -32 -7
-45 -17 -19 -13 -27 -14 -43 -4 -25 16 -32 9 -24 -25 7 -27 46 -70 81 -90 56
-31 -78 -135 -189 -146 -98 -11 -227 53 -246 121 -29 103 -13 133 65 125 264
-27 369 307 133 427 -45 23 -42 23 -59 3z m366 -434 c-3 -5 -16 -10 -28 -10
-18 0 -19 2 -7 10 20 13 43 13 35 0z"/>
<path d="M1385 660 c-4 -6 7 -10 24 -10 17 0 31 5 31 10 0 6 -11 10 -24 10
-14 0 -28 -4 -31 -10z"/>
<path d="M1320 636 c-6 -8 -10 -23 -8 -34 2 -16 7 -13 25 14 23 35 9 50 -17
20z"/>
<path d="M4220 1730 c19 -13 30 -13 30 0 0 6 -10 10 -22 10 -19 0 -20 -2 -8
-10z"/>
<path d="M7132 1728 c3 -7 14 -14 26 -16 13 -2 24 -13 28 -26 7 -29 50 -51 69
-36 10 8 23 6 52 -9 38 -20 38 -20 6 -14 -53 9 -39 -3 52 -46 91 -44 95 -49
66 -75 -11 -10 -25 -31 -31 -47 -7 -16 -19 -29 -26 -29 -8 0 -14 -4 -14 -10 0
-20 -21 -10 -37 18 -13 22 -74 62 -95 62 -8 0 -38 -89 -38 -114 0 -16 -3 -17
-12 -8 -25 25 -31 11 -25 -55 10 -124 2 -134 -80 -108 -35 11 -31 -38 5 -75
40 -40 92 -48 161 -24 30 10 65 17 78 16 19 -3 23 1 23 22 0 150 68 116 73
-36 3 -76 27 -74 27 2 0 37 16 47 41 24 22 -20 24 -36 7 -63 -6 -11 -8 -26 -3
-37 28 -66 -71 -244 -136 -244 -18 0 -64 -27 -96 -57 -15 -14 -53 -27 -59 -20
-2 2 14 22 36 44 45 46 55 117 25 198 -14 40 -14 40 -15 6 0 -19 5 -49 12 -67
24 -67 -46 -150 -118 -140 -70 9 -65 -27 9 -66 200 -106 484 109 481 364 -2
113 5 116 36 16 35 -114 39 -291 10 -387 -50 -168 -184 -312 -263 -283 -53 19
-75 15 -112 -22 -82 -82 -350 -52 -397 44 -30 63 -24 99 26 145 68 62 70 113
8 186 -37 45 -129 36 -172 -16 -15 -18 -132 -77 -138 -70 -8 7 25 51 86 117
172 184 144 399 -61 476 -134 50 -367 -54 -367 -164 0 -23 19 -6 34 30 24 58
136 123 182 105 10 -4 32 -8 47 -8 41 -1 119 -44 146 -81 61 -83 -24 -288
-136 -331 -35 -13 -73 -119 -44 -119 14 0 23 -34 15 -54 -5 -13 -14 -15 -34
-11 -16 4 -31 1 -35 -5 -5 -8 -14 -6 -32 6 -26 16 -26 16 -19 -30 42 -278 384
-476 744 -430 112 14 141 14 173 4 40 -14 86 -3 109 25 6 7 53 34 105 60 122
61 174 112 222 214 42 90 55 96 63 30 3 -24 20 -75 37 -114 18 -38 35 -81 38
-94 54 -191 370 -222 421 -42 9 31 18 58 20 60 2 2 55 -19 117 -48 237 -107
446 -166 716 -202 122 -16 560 -6 626 14 28 9 79 25 115 36 36 12 103 26 150
31 146 19 293 50 355 77 107 45 129 56 213 106 122 72 238 69 288 -9 53 -80
215 -76 275 7 38 54 99 10 84 -61 -8 -34 -77 -100 -105 -100 -29 0 -38 -30
-15 -46 172 -126 450 319 307 489 -27 31 -33 18 -26 -57 5 -51 2 -89 -7 -120
-14 -47 -29 -45 -29 4 0 100 -88 216 -175 232 -12 2 -20 11 -20 23 0 15 -7 20
-28 21 -53 2 -40 44 14 44 15 0 30 4 33 9 10 15 -46 22 -83 11 -46 -13 -50 -8
-44 58 9 93 -30 136 -101 112 -56 -18 -69 -42 -19 -34 64 10 64 -85 0 -179
-14 -21 -28 -51 -32 -67 -7 -30 -50 -67 -123 -104 -45 -23 -50 -14 -18 32 14
21 26 44 26 50 0 7 11 17 25 22 15 6 27 20 30 37 4 15 11 36 16 46 26 48 -9
21 -108 -82 -130 -134 -151 -141 -89 -29 57 105 110 172 164 210 54 37 49 44
-17 22 -44 -14 -55 -23 -73 -57 -48 -95 -169 -266 -227 -321 -70 -66 -90 -67
-44 -3 86 116 141 205 246 395 22 40 64 100 92 135 28 34 66 84 84 112 97 145
132 171 163 120 66 -113 255 -98 323 26 105 192 -51 364 -281 309 -51 -13 -56
-12 -77 8 -28 26 -81 39 -92 22 -4 -6 0 -17 9 -23 14 -11 12 -19 -14 -72 -34
-68 -41 -110 -14 -84 8 9 21 33 29 55 28 81 44 48 24 -47 -18 -82 -88 -140
-75 -61 7 37 7 37 -13 6 -38 -62 -61 -45 -61 48 -1 53 -1 53 -14 22 -15 -33
-33 -44 -72 -44 -29 0 -30 -3 -3 -40 47 -63 32 -220 -27 -298 -30 -39 -52 -31
-33 12 13 27 8 43 -10 31 -6 -3 -11 -17 -11 -31 0 -13 -5 -24 -10 -24 -7 0 -8
13 -5 33 5 24 2 39 -9 50 -9 8 -21 28 -26 43 -13 33 -24 24 -25 -18 0 -54 -21
-41 -55 34 -53 118 -133 230 -219 308 -51 46 -81 81 -87 102 -13 44 -84 95
-110 79 -11 -6 -14 -11 -8 -11 48 -1 -3 -120 -50 -120 -14 0 -4 58 15 89 23
38 20 48 -9 32 -12 -6 -32 -11 -46 -11 -30 0 -32 -5 -11 -26 33 -34 1 -50 -66
-35 -69 16 -114 13 -142 -9 -14 -12 -56 -30 -93 -42 -134 -42 -288 -252 -231
-316 8 -9 18 -36 22 -59 7 -46 14 -53 62 -72 29 -12 35 -11 59 8 42 33 114 15
114 -28 0 -5 -9 -13 -20 -16 -11 -3 -20 -13 -20 -21 0 -49 -86 -70 -156 -37
-35 17 -74 73 -74 107 0 8 -8 21 -18 28 -54 40 -63 88 -28 157 33 65 -1 105
-40 46 -9 -13 -24 -27 -35 -30 -26 -8 -49 -56 -49 -99 0 -19 -4 -38 -10 -41
-29 -18 -5 -176 45 -301 49 -123 55 -244 14 -288 -13 -14 -49 23 -49 50 0 27
-16 40 -24 19 -9 -23 -22 -18 -43 18 -62 104 -234 119 -291 25 -46 -77 -35
-222 20 -269 267 -226 652 93 517 428 -17 43 -9 48 39 23 142 -74 311 -1 312
135 0 70 -113 151 -180 130 -82 -26 -69 117 21 219 77 88 294 122 364 56 29
-27 86 -36 125 -20 45 19 106 -8 168 -74 106 -112 160 -246 71 -177 -56 43
-76 46 -38 5 80 -86 118 -187 99 -263 -13 -51 -56 -131 -70 -131 -21 0 -9 -47
20 -82 36 -43 36 -43 -37 -144 -38 -55 -156 -164 -175 -164 -14 0 -9 23 9 42
11 12 13 22 7 26 -5 4 -19 20 -31 35 -24 32 -20 35 -85 -66 -35 -54 -75 -84
-65 -48 7 28 1 27 -40 -9 -55 -48 -169 -102 -308 -143 -82 -25 -422 -31 -505
-9 -25 6 -78 19 -118 28 -80 19 -122 44 -122 75 0 20 -38 62 -72 80 -16 9 -17
5 -12 -34 8 -60 -9 -72 -103 -72 -52 0 -76 -4 -82 -14 -19 -30 -171 35 -171
72 0 24 1 25 80 23 62 -1 83 2 90 14 14 22 -5 36 -33 23 -17 -8 -28 -7 -42 3
-10 7 -42 20 -70 29 -169 49 -447 257 -472 353 -9 36 -2 35 98 -12 270 -128
502 -111 655 46 80 82 116 177 78 209 -19 15 -34 -1 -34 -38 0 -70 -127 -122
-201 -82 -38 20 -44 2 -6 -21 68 -41 32 -55 -139 -52 -190 3 -335 53 -454 159
-14 12 -43 28 -65 35 -36 12 -42 18 -58 68 -10 30 -26 63 -34 73 -40 43 1 23
53 -27 33 -31 62 -56 66 -56 4 0 40 -30 80 -66 102 -93 180 -127 191 -84 3 11
13 20 24 20 10 0 32 9 48 20 21 14 47 20 89 20 52 0 57 2 45 16 -10 12 -23 14
-60 9 -43 -6 -48 -5 -54 17 -16 53 -75 98 -130 98 -102 1 -146 24 -272 144
-63 59 -50 76 57 76 179 0 298 148 193 240 -44 39 -62 36 -80 -14 -13 -38 -12
-39 5 -23 28 25 52 22 52 -7 0 -29 -3 -31 -54 -40 -33 -6 -38 -5 -33 8 8 19 8
19 -68 1 -103 -25 -205 -20 -287 15 -38 17 -75 30 -80 30 -5 0 -89 32 -185 71
-117 46 -184 68 -199 65 -12 -3 -33 -2 -46 3 -46 17 -130 23 -126 9z m302
-137 c59 -28 112 -71 87 -71 -18 0 -86 36 -100 54 -8 9 -19 16 -25 16 -7 0
-21 7 -32 15 -32 25 4 18 70 -14z m3826 -29 c32 -26 74 -142 51 -142 -6 0 -11
5 -11 10 0 33 -41 50 -118 50 -91 0 -96 3 -76 41 28 55 110 77 154 41z m-3512
-190 c75 -72 97 -102 73 -102 -5 0 -40 32 -78 70 -37 39 -75 73 -85 76 -9 2
-28 21 -43 40 -46 61 36 9 133 -84z m-268 -62 c0 -12 -5 -17 -13 -14 -15 5
-47 66 -47 87 1 20 60 -52 60 -73z m3708 41 c5 -45 -10 -58 -42 -37 -30 19
-34 50 -8 65 29 18 47 8 50 -28z m-3320 -114 c2 -10 -3 -17 -12 -17 -10 0 -16
9 -16 21 0 24 23 21 28 -4z m-418 -28 c0 -11 -4 -17 -10 -14 -5 3 -10 13 -10
21 0 8 5 14 10 14 6 0 10 -9 10 -21z m626 -100 c31 -30 83 -47 142 -49 28 0
20 17 -14 30 -38 15 -28 30 20 30 72 0 101 -31 64 -68 -21 -21 -141 -15 -171
8 -14 11 -32 20 -40 20 -13 0 -36 21 -51 48 -14 24 18 12 50 -19z m-1166 -385
c0 -12 -7 -14 -29 -9 -57 12 -131 -91 -131 -184 0 -50 0 -50 114 -161 62 -61
62 -66 0 -76 -52 -8 -154 33 -206 83 -20 19 -46 40 -59 47 -33 16 -34 34 -2
41 103 21 103 21 97 73 -4 26 -13 52 -20 58 -18 14 -18 38 -1 53 10 8 17 7 25
-1 18 -18 42 -1 42 30 0 40 19 61 70 76 50 15 100 0 100 -30z m2144 21 c3 -8
18 -15 33 -15 81 0 126 -86 67 -127 -15 -10 -37 -28 -49 -41 -14 -13 -29 -20
-39 -16 -12 4 -16 0 -16 -15 0 -37 -27 -24 -59 29 -26 43 -26 52 -2 104 11 23
22 53 26 69 6 29 29 37 39 12z m-1104 -44 c0 -16 116 -165 166 -214 52 -52 51
-59 -11 -82 -71 -28 -90 -17 -132 72 -39 80 -61 233 -34 233 6 0 11 -4 11 -9z
m3230 -11 c0 -5 -7 -10 -15 -10 -8 0 -15 5 -15 10 0 6 7 10 15 10 8 0 15 -4
15 -10z m-58 -28 c42 5 54 1 84 -23 20 -16 44 -31 54 -34 48 -15 100 -128 100
-216 0 -46 2 -50 20 -44 22 7 25 -2 10 -25 -9 -13 -11 -13 -19 0 -13 19 -23 7
-36 -38 -13 -47 -41 -58 -32 -13 7 36 -12 81 -60 143 -15 20 -35 50 -45 66
-29 54 -120 93 -134 58 -10 -27 25 -58 58 -51 23 6 28 3 34 -20 15 -61 -48
-125 -121 -125 -37 0 -30 34 8 38 29 4 37 28 15 50 -9 9 -9 12 -1 12 7 0 15
-4 18 -10 9 -15 35 -12 35 4 0 8 -14 26 -31 40 -33 28 -72 36 -63 12 4 -10 -7
-9 -48 5 -29 10 -79 18 -110 19 -32 0 -58 4 -58 9 0 18 71 62 127 79 40 12 61
25 69 41 17 32 34 42 57 29 11 -6 42 -8 69 -6z m-3763 -276 c9 -10 7 -18 -6
-35 -24 -28 -48 -14 -39 23 7 28 27 34 45 12z m861 -16 c7 -12 7 -17 -5 -73
-11 -52 -110 -86 -165 -57 -32 17 -67 72 -44 70 47 -5 75 1 80 18 20 64 22 65
75 60 28 -3 55 -11 59 -18z m-260 -63 c16 -13 43 -67 34 -67 -18 0 -64 44 -64
61 0 22 8 24 30 6z"/>
<path d="M9765 1686 c-28 -13 -23 -14 68 -14 70 0 96 3 88 11 -17 17 -122 19
-156 3z"/>
<path d="M9940 1680 c0 -5 12 -10 28 -10 21 0 24 2 12 10 -20 13 -40 13 -40 0z"/>
<path d="M3994 1665 c-10 -8 -14 -15 -7 -15 19 0 43 11 43 21 0 13 -14 11 -36
-6z"/>
<path d="M1438 1639 c-21 -13 39 -41 61 -30 11 6 30 11 43 11 13 0 32 1 43 2
11 1 46 -1 78 -5 55 -7 73 1 45 20 -15 9 -255 11 -270 2z"/>
<path d="M8533 1632 c-126 -67 -150 -166 -75 -305 110 -203 435 -232 684 -61
41 29 58 25 58 -12 0 -13 4 -24 9 -24 8 0 13 9 45 101 19 52 41 87 51 78 3 -4
0 -18 -6 -33 -7 -14 -9 -29 -5 -34 10 -9 36 27 36 50 0 10 4 18 10 18 5 0 13
13 17 28 11 40 115 129 190 163 73 34 92 54 42 46 -19 -4 -61 -10 -94 -16 -33
-5 -73 -12 -90 -16 -42 -11 -182 -82 -203 -103 -10 -10 -32 -26 -49 -37 -17
-11 -49 -33 -71 -48 -64 -45 -232 -97 -232 -71 0 3 11 22 25 42 37 54 33 98
-12 156 -74 95 -161 107 -98 14 42 -62 30 -109 -32 -128 -169 -54 -66 -147
132 -122 91 12 145 33 210 82 85 64 133 75 79 19 -153 -160 -404 -203 -539
-94 -29 24 -61 45 -71 47 -23 4 -43 57 -43 116 -1 43 -14 56 -25 25 -6 -14 -9
-15 -16 -4 -19 31 32 101 74 101 7 0 24 9 37 20 31 25 7 26 -38 2z"/>
<path d="M3893 1618 c-25 -33 -24 -37 6 -27 35 12 50 39 22 39 -10 0 -23 -6
-28 -12z"/>
<path d="M3479 1569 c-11 -21 -11 -21 20 -3 31 18 31 18 58 -14 38 -44 151
-80 167 -53 9 14 86 19 86 6 0 -52 -188 -87 -261 -49 -24 12 -34 13 -45 3 -24
-19 -47 8 -41 48 8 49 -8 40 -23 -12 -39 -141 113 -237 295 -186 52 14 55 10
56 -67 1 -59 2 -62 9 -27 14 81 81 197 126 217 51 23 12 108 -49 108 -17 0
-27 5 -27 15 0 21 -17 19 -66 -10 -58 -34 -152 -27 -202 16 -40 35 -86 39
-103 8z"/>
<path d="M2685 1526 c-9 -13 -28 -27 -42 -31 -14 -3 -23 -8 -20 -11 3 -3 22 0
42 7 31 11 37 11 45 -1 28 -43 -33 -124 -91 -122 -85 2 -102 -23 -48 -71 58
-51 213 20 257 119 15 32 15 34 -3 34 -8 0 -21 15 -30 33 -28 59 -85 82 -110
43z"/>
<path d="M2246 1521 c-3 -5 3 -11 14 -14 24 -6 36 8 14 17 -20 8 -22 8 -28 -3z"/>
<path d="M2373 1489 c14 -8 22 -8 30 0 8 8 3 11 -18 11 -26 -1 -28 -2 -12 -11z"/>
<path d="M4025 1476 c-15 -23 -16 -31 -5 -51 8 -15 10 -37 6 -60 -7 -37 -7
-37 16 -21 12 9 34 16 49 16 27 0 89 58 89 83 0 43 -131 71 -155 33z"/>
<path d="M2515 1480 c-4 -6 10 -10 35 -10 25 0 39 4 35 10 -3 6 -19 10 -35 10
-16 0 -32 -4 -35 -10z"/>
<path d="M10640 1365 c-7 -9 -11 -18 -8 -20 3 -3 11 1 18 10 7 9 11 18 8 20
-3 3 -11 -1 -18 -10z"/>
<path d="M10175 1230 c-4 -6 14 -10 47 -10 38 0 49 3 38 10 -20 13 -77 13 -85
0z"/>
<path d="M10077 1189 c-45 -26 -87 -131 -67 -168 15 -30 37 -26 43 8 13 62
125 59 188 -4 58 -58 73 -11 20 63 -28 38 -50 50 -124 66 -15 4 -31 15 -35 26
-5 14 -11 16 -25 9z"/>
<path d="M6485 1131 c-3 -5 4 -12 14 -16 46 -14 30 -75 -20 -75 -9 0 -33 -13
-54 -30 -36 -29 -38 -29 -73 -14 -48 20 -75 0 -50 -38 27 -40 66 -78 81 -78
32 0 41 -28 23 -73 -15 -40 -18 -119 -4 -132 3 -3 9 19 13 50 10 86 29 120 89
164 94 69 123 136 86 196 -27 43 -89 71 -105 46z"/>
<path d="M7257 1072 c-10 -10 -17 -27 -17 -38 1 -16 5 -14 25 11 36 44 28 67
-8 27z"/>
<path d="M7400 966 c-15 -41 -10 -56 6 -17 8 18 13 36 10 39 -3 2 -10 -7 -16
-22z"/>
<path d="M6048 964 c-3 -3 -41 -14 -83 -24 -42 -10 -80 -21 -83 -24 -11 -11
39 -6 97 10 106 30 119 1 36 -81 -74 -75 -71 -85 26 -85 45 0 49 2 49 24 0 13
14 40 30 61 55 70 -11 180 -72 119z"/>
<path d="M10165 948 c-20 -11 -35 -28 -35 -39 0 -4 17 2 37 12 66 34 110 -9
122 -118 7 -67 42 -83 69 -33 59 111 -82 241 -193 178z"/>
<path d="M9300 865 c0 -15 24 -54 31 -49 10 6 -10 54 -23 54 -4 0 -8 -2 -8 -5z"/>
<path d="M9290 757 c0 -20 5 -37 10 -37 16 0 16 47 -1 65 -5 5 -9 -5 -9 -28z"/>
<path d="M5790 730 c36 -12 62 -12 55 0 -3 6 -23 10 -43 9 -33 -1 -34 -2 -12
-9z"/>
<path d="M4866 715 c-9 -24 -7 -45 3 -45 5 0 13 9 16 21 8 26 -9 48 -19 24z"/>
<path d="M6004 695 c26 -19 42 -19 26 0 -7 8 -20 15 -29 15 -13 -1 -13 -3 3
-15z"/>
<path d="M8731 429 c-13 -5 -21 -12 -18 -15 9 -9 68 7 61 17 -6 11 -12 11 -43
-2z"/>
</g>
</svg>
