<?xml version="1.0" standalone="no"?>
<!DOCTYPE svg PUBLIC "-//W3C//DTD SVG 20010904//EN"
 "http://www.w3.org/TR/2001/REC-SVG-20010904/DTD/svg10.dtd">
<svg version="1.0" xmlns="http://www.w3.org/2000/svg"
 width="544.000000pt" height="539.000000pt" viewBox="0 0 544.000000 539.000000"
 preserveAspectRatio="xMidYMid meet">
<metadata>
Created by potrace 1.16, written by Peter Selinger 2001-2019
</metadata>
<g transform="translate(-16.000000,560.000000) scale(0.100000,-0.100000)"
fill="#000000" stroke="none">
<path d="M160 2905 l0 -2695 2720 0 2720 0 0 2695 0 2695 -2720 0 -2720 0 0
-2695z m5330 0 l0 -2615 -2610 0 -2610 0 0 2615 0 2615 2610 0 2610 0 0 -2615z"/>
<path d="M870 5374 c-191 -41 -347 -192 -389 -374 -16 -67 -13 -218 4 -285 18
-67 73 -185 87 -185 5 0 7 -4 4 -8 -9 -15 101 -112 166 -146 111 -57 265 -86
361 -68 26 5 49 6 52 2 2 -3 -14 -28 -36 -55 -22 -26 -36 -51 -32 -55 4 -3 25
-18 45 -33 l37 -27 21 28 c55 69 220 228 283 271 12 8 24 18 27 21 3 4 13 9
23 13 11 4 15 12 11 18 -5 8 -3 9 5 5 7 -5 20 -1 29 7 9 8 58 35 109 59 51 25
89 48 85 52 -3 4 1 4 11 0 9 -3 23 -2 30 4 6 5 26 12 42 16 17 4 38 9 48 12
28 8 20 -22 -10 -42 -83 -54 -161 -167 -178 -256 -6 -31 -4 -38 9 -38 8 0 20
9 26 20 6 11 20 20 30 20 17 0 20 -7 20 -42 0 -24 0 -52 1 -62 0 -28 22 -66
67 -113 59 -65 78 -55 46 23 -19 46 -15 203 6 224 3 3 14 23 25 45 32 64 122
148 195 182 106 49 95 46 215 61 89 12 263 1 378 -24 38 -8 70 -14 73 -14 2 0
4 24 4 54 l0 54 -50 11 c-28 6 -63 11 -79 11 -15 0 -68 7 -117 15 -162 26
-338 54 -374 59 -19 3 -49 9 -67 15 -17 5 -35 6 -39 3 -4 -4 -4 -1 0 6 6 10
-7 17 -17 10 -5 -4 -85 89 -99 115 -7 12 -12 56 -12 97 -1 85 10 110 74 178
44 47 49 62 23 62 -27 -1 -103 -38 -103 -50 0 -6 -4 -9 -8 -6 -12 7 -70 -63
-78 -94 0 -3 -4 -13 -8 -22 -4 -9 -9 -23 -10 -32 -1 -8 -6 -19 -11 -23 -4 -4
-5 -3 -2 3 6 10 -26 28 -45 25 -4 0 -5 6 -2 14 3 8 2 19 -2 26 -11 19 -34 -19
-34 -58 0 -69 38 -141 121 -226 71 -74 85 -97 58 -97 -17 0 -246 -88 -301
-116 -29 -15 -93 -50 -143 -79 -116 -67 -204 -101 -326 -129 -122 -27 -219
-21 -305 18 -31 14 -61 23 -67 19 -6 -3 -7 -1 -3 5 4 6 -13 29 -39 53 -28 26
-60 71 -82 117 -35 69 -38 83 -41 178 -5 116 7 162 66 251 53 82 116 125 217
148 149 35 312 -32 366 -150 41 -88 12 -214 -58 -261 -18 -12 -31 -23 -28 -25
2 -2 -23 -5 -55 -7 -60 -3 -103 11 -129 42 -7 9 -16 14 -20 12 -3 -2 -7 19 -9
47 -8 129 -31 154 -69 77 -82 -161 81 -344 268 -300 160 37 268 171 256 318
-2 33 0 52 7 52 20 0 88 41 113 68 62 67 87 179 49 221 -11 12 -22 21 -25 21
-4 0 -14 -22 -24 -50 -31 -88 -109 -104 -201 -40 -79 54 -170 91 -263 106
-104 16 -118 16 -203 -2z m-150 -79 c0 -2 -10 -9 -22 -15 -22 -11 -22 -10 -4
4 21 17 26 19 26 11z m-84 -65 c0 -12 -4 -16 -9 -11 -5 5 -6 14 -3 20 10 15
12 14 12 -9z m-83 -123 c3 -8 -1 -14 -8 -14 -7 0 -11 6 -8 14 3 7 6 13 8 13 2
0 5 -6 8 -13z m1261 -105 c3 -5 -1 -9 -9 -9 -8 0 -12 4 -9 9 3 4 7 8 9 8 2 0
6 -4 9 -8z m-184 -356 c0 -2 -7 -7 -16 -10 -8 -3 -12 -2 -9 4 6 10 25 14 25 6z
m15 -16 c-3 -5 -12 -10 -18 -10 -7 0 -6 4 3 10 19 12 23 12 15 0z m-455 -284
c0 -2 -9 -6 -20 -9 -11 -3 -18 -1 -14 4 5 9 34 13 34 5z m-60 -150 c-7 -7 -13
-7 -20 0 -6 6 -3 10 10 10 13 0 16 -4 10 -10z"/>
<path d="M2355 5370 c-21 -23 -14 -64 12 -75 10 -4 60 -17 111 -30 163 -42
258 -110 332 -239 80 -141 82 -184 65 -1261 -8 -473 -17 -1148 -21 -1500 -6
-685 -10 -738 -61 -915 -54 -187 -174 -341 -323 -413 -167 -82 -409 -70 -574
27 -60 35 -176 127 -318 253 -65 57 -118 102 -118 101 0 -2 25 -79 55 -173 30
-93 78 -244 107 -334 41 -128 57 -165 73 -171 45 -17 321 -32 492 -27 146 4
196 10 275 30 200 52 352 139 499 286 151 150 245 323 312 572 51 189 50 148
57 1789 6 1701 2 1593 67 1712 33 60 105 145 152 179 48 34 150 75 236 95 38
8 75 20 82 26 20 16 16 66 -6 78 -13 7 -267 10 -754 10 -716 0 -734 0 -752
-20z"/>
<path d="M4535 5384 c-11 -3 -46 -12 -77 -19 -74 -19 -150 -54 -141 -68 3 -6
1 -7 -5 -3 -17 10 -71 -21 -156 -91 -56 -47 -74 -67 -70 -80 4 -13 3 -15 -4
-5 -7 10 -19 1 -51 -37 -25 -30 -39 -55 -35 -62 4 -7 3 -9 -4 -5 -13 8 -75
-92 -108 -176 -14 -35 -29 -72 -35 -83 -10 -20 -49 -154 -49 -167 0 -12 82
-48 93 -41 6 4 7 1 2 -7 -9 -15 32 -7 77 15 29 14 131 15 186 1 40 -11 42 4 5
43 -44 46 -98 71 -152 71 -26 0 -50 3 -54 6 -3 4 1 20 9 36 13 24 13 32 2 46
-11 15 -11 15 3 5 13 -11 19 -6 37 33 12 25 19 51 16 57 -4 7 -4 9 1 5 4 -4
34 32 65 80 80 121 167 197 290 253 25 12 54 25 65 30 48 22 206 37 288 26 45
-5 92 -10 104 -11 12 -1 19 -3 17 -5 -7 -8 89 -50 99 -44 6 3 7 1 3 -5 -3 -6
11 -23 34 -39 22 -15 40 -32 40 -36 0 -16 37 -56 45 -49 5 4 5 2 2 -4 -3 -5 5
-33 18 -61 32 -67 48 -178 36 -251 -11 -63 -35 -138 -52 -158 -6 -7 -7 -19 -3
-25 4 -8 3 -9 -4 -5 -6 4 -19 -5 -28 -19 -9 -14 -41 -43 -70 -64 -29 -21 -50
-42 -46 -46 4 -5 2 -5 -4 -2 -6 3 -32 0 -59 -8 -134 -41 -289 16 -345 126 -26
49 -36 169 -21 227 13 47 52 98 83 108 10 3 16 9 14 13 -3 4 28 8 68 9 69 3
75 1 105 -27 27 -26 31 -35 31 -83 0 -58 -19 -90 -60 -103 -24 -8 -23 -33 1
-48 23 -14 85 0 112 26 38 35 51 68 51 133 0 64 -29 132 -53 126 -7 -1 -10 2
-6 8 8 13 -29 46 -75 67 -46 21 -153 20 -207 -2 -24 -9 -40 -21 -37 -26 3 -5
-1 -6 -9 -3 -8 3 -31 -9 -51 -26 -33 -29 -39 -31 -67 -21 -41 14 -95 14 -121
0 -19 -10 -18 -12 19 -31 67 -34 83 -69 83 -184 0 -99 18 -192 35 -177 4 4 5
2 1 -4 -10 -17 57 -116 102 -151 51 -40 100 -64 114 -56 6 4 8 3 5 -3 -7 -11
106 -33 167 -33 19 0 38 -5 41 -10 10 -16 -4 -48 -24 -55 -10 -3 -26 -20 -36
-39 -24 -45 -16 -96 31 -193 32 -67 38 -90 42 -164 3 -61 0 -102 -11 -139 -9
-30 -14 -57 -11 -62 9 -14 78 30 102 64 12 19 22 45 22 59 1 70 24 87 59 43
17 -21 21 -41 21 -98 0 -48 -5 -79 -15 -92 -22 -30 -18 -36 22 -32 30 2 38 -1
41 -16 7 -32 -20 -67 -70 -92 -26 -13 -48 -29 -48 -34 0 -6 21 -10 48 -10 191
1 267 282 120 444 -21 23 -15 36 16 36 12 0 26 3 30 8 4 4 11 7 15 7 11 0 81
49 81 57 0 4 -17 12 -37 17 -21 5 -64 16 -95 24 -109 28 -198 120 -198 204 0
55 17 89 69 132 22 19 37 39 34 44 -3 6 -2 7 4 4 13 -8 56 37 46 48 -5 4 -3 5
4 1 11 -6 72 67 74 89 0 6 6 17 14 25 7 8 23 44 36 80 32 96 33 268 0 363 -12
37 -29 74 -38 82 -8 8 -12 15 -8 15 3 0 -1 14 -10 30 -9 17 -19 30 -24 30 -4
0 -8 9 -7 20 1 12 19 32 44 49 43 28 83 77 96 117 7 22 7 22 -61 -3 -79 -29
-91 -28 -313 18 -137 29 -326 45 -375 33z m-71 -900 c3 -8 2 -12 -4 -9 -6 3
-10 10 -10 16 0 14 7 11 14 -7z m514 -139 c-3 -3 -9 2 -12 12 -6 14 -5 15 5 6
7 -7 10 -15 7 -18z"/>
<path d="M3694 5137 c-119 -65 -191 -140 -221 -231 -16 -47 -18 -184 -24
-1611 -7 -1662 -5 -1597 -54 -1808 -43 -184 -182 -454 -309 -600 -109 -127
-316 -265 -486 -328 -165 -60 -196 -63 -533 -64 -331 0 -343 -3 -148 -42 110
-22 440 -24 551 -4 304 55 534 190 733 429 171 206 262 397 328 687 l23 100 6
1620 c5 1563 6 1622 24 1665 25 59 59 105 120 162 56 52 53 59 -10 25z"/>
<path d="M3640 4486 c0 -51 3 -66 14 -66 20 0 147 -66 218 -114 33 -21 63 -34
69 -30 7 4 9 3 5 -4 -3 -6 -2 -13 3 -16 4 -3 11 14 14 37 3 24 9 50 12 59 7
18 -83 81 -210 145 -129 66 -125 66 -125 -11z"/>
<path d="M2400 4491 c-82 -17 -129 -53 -187 -143 -25 -39 -28 -52 -28 -133 0
-74 5 -105 29 -172 16 -45 33 -80 37 -77 5 3 7 -1 4 -8 -3 -7 15 -49 40 -92
50 -88 52 -98 28 -117 -9 -8 -14 -9 -10 -3 7 12 -80 55 -148 73 -163 41 -358
11 -538 -85 -40 -21 -65 -40 -61 -46 4 -7 2 -8 -4 -4 -7 4 -17 2 -24 -3 -7 -6
-43 -35 -80 -64 -115 -93 -197 -170 -191 -180 4 -6 1 -7 -6 -2 -8 4 -23 -3
-39 -18 -45 -41 -147 -105 -203 -127 -31 -12 -89 -24 -136 -27 -96 -7 -162 12
-224 65 -21 18 -43 31 -48 28 -5 -4 -13 -1 -17 5 -4 8 -3 9 4 5 19 -11 14 3
-13 38 -36 47 -72 134 -80 191 -9 71 11 180 47 252 72 148 244 230 388 188 30
-9 63 -17 72 -18 9 -1 16 -4 15 -8 -1 -3 12 -18 29 -32 71 -60 96 -182 55
-267 -11 -24 -18 -47 -14 -53 4 -6 1 -7 -6 -3 -7 5 -20 1 -30 -8 -10 -9 -40
-23 -67 -31 -43 -13 -55 -13 -100 0 -28 8 -57 22 -64 30 -7 8 -16 12 -21 9 -5
-3 -8 -2 -7 3 4 12 -70 123 -82 123 -17 0 -23 -50 -10 -95 7 -25 16 -42 21
-39 5 3 7 -1 4 -8 -7 -19 44 -73 93 -98 53 -26 161 -37 219 -21 92 25 179 121
202 224 13 60 20 67 41 42 7 -9 19 -14 27 -11 8 3 11 1 8 -4 -3 -6 0 -10 7
-11 7 0 23 -2 36 -5 13 -2 21 0 18 5 -3 5 2 7 13 4 23 -6 50 22 96 98 19 30
44 60 57 67 27 14 79 19 95 9 15 -9 25 6 17 26 -9 24 -68 47 -122 47 -37 0
-58 -6 -83 -25 -51 -37 -131 -75 -159 -75 -15 0 -30 -3 -35 -8 -6 -4 -9 -6 -8
-3 6 10 -60 91 -69 85 -6 -4 -8 -3 -5 3 9 15 -79 97 -94 88 -8 -5 -10 -4 -5 3
10 17 -87 59 -162 71 -73 12 -240 -8 -228 -28 2 -3 -6 -7 -19 -7 -13 -1 -36
-11 -52 -21 -37 -26 -70 -38 -55 -21 7 9 6 26 -5 58 -16 48 -36 76 -66 92 -16
8 -17 7 -8 -11 19 -34 12 -112 -15 -176 -64 -152 -84 -240 -84 -363 0 -71 6
-118 20 -163 22 -73 81 -175 98 -172 6 2 9 -3 6 -11 -6 -16 88 -98 154 -133
69 -37 127 -51 212 -52 86 -1 165 19 222 55 21 14 42 23 46 20 4 -2 4 -102 1
-223 -8 -271 -27 -364 -101 -511 -16 -30 -25 -59 -21 -65 3 -5 1 -7 -4 -4 -6
4 -16 0 -23 -8 -7 -8 -10 -15 -7 -15 22 0 -81 -78 -139 -106 -62 -30 -81 -34
-149 -34 -82 0 -149 14 -177 38 -9 8 -21 12 -25 9 -5 -3 -10 6 -11 21 -3 36
12 42 66 26 25 -8 75 -14 111 -13 72 1 168 29 163 49 -1 6 2 9 7 5 15 -9 63
26 57 41 -3 8 0 11 10 7 7 -3 14 -1 14 4 0 5 9 18 19 30 11 11 29 39 41 63
l22 42 -39 -30 c-90 -73 -216 -99 -315 -67 -29 9 -61 24 -71 33 -22 19 -34 8
-16 -15 13 -16 12 -17 -4 -4 -10 8 -16 20 -13 27 5 14 -11 30 -21 21 -7 -7 38
-87 49 -87 4 0 8 -5 8 -11 0 -12 -67 -9 -169 7 l-44 7 7 -33 c12 -61 63 -154
111 -202 26 -25 44 -51 41 -56 -3 -6 -23 -16 -44 -22 -45 -15 -53 -22 -44 -37
16 -25 225 -43 263 -23 31 17 22 0 -23 -42 l-41 -38 36 0 c52 0 137 22 130 33
-3 6 -1 7 5 3 16 -9 113 34 105 47 -4 6 -1 7 6 3 32 -20 180 126 231 228 30
62 70 227 84 351 9 76 26 135 39 135 6 0 24 -11 41 -23 45 -34 126 -80 126
-72 0 4 6 3 13 -3 7 -6 43 -16 80 -22 116 -21 238 16 342 101 46 38 75 72 45
54 -8 -5 -11 -4 -6 3 4 6 12 9 19 7 19 -6 112 109 154 190 38 76 57 91 68 56
16 -51 -70 -217 -164 -319 -17 -19 -28 -38 -25 -44 4 -6 2 -8 -4 -5 -10 7 -93
-56 -101 -76 -5 -14 112 -2 168 17 65 24 142 21 176 -6 l27 -21 -7 23 c-12 37
-64 117 -80 124 -23 8 -18 23 10 30 14 4 23 11 20 16 -3 5 0 7 8 5 7 -3 26 6
41 20 15 14 30 25 34 25 4 0 18 17 32 37 14 20 30 42 36 48 16 15 46 76 41 81
-8 9 -57 -38 -51 -48 4 -7 2 -8 -4 -4 -6 4 -25 0 -43 -9 -37 -19 -47 -13 -31
18 53 101 71 397 24 397 -5 0 -29 -37 -54 -82 -57 -106 -73 -108 -74 -10 -1
40 -4 75 -6 78 -3 2 -20 -10 -37 -28 -39 -40 -84 -130 -107 -218 -10 -36 -20
-69 -24 -73 -4 -4 -26 20 -48 55 -79 121 -171 206 -134 123 16 -35 15 -94 -2
-101 -7 -3 -29 5 -49 16 -20 12 -48 20 -62 18 l-25 -3 40 -59 c22 -32 40 -63
40 -68 0 -5 4 -7 8 -4 9 5 12 -18 14 -90 1 -96 -60 -152 -178 -161 -66 -6
-111 11 -172 62 -44 37 -98 129 -118 203 -15 53 -16 72 -6 125 21 111 89 219
193 303 27 22 60 28 53 9 -5 -13 48 -74 86 -98 27 -17 130 -22 130 -6 0 5 -4
10 -10 10 -5 1 -14 2 -20 3 -5 0 -9 3 -8 6 2 3 -8 20 -21 38 -52 74 -36 155
42 206 69 45 139 61 262 60 156 0 250 -31 361 -120 44 -35 144 -163 144 -183
0 -7 5 -9 12 -5 6 4 8 3 5 -3 -4 -6 4 -36 18 -67 53 -121 70 -209 69 -371 0
-161 -15 -241 -69 -372 -30 -74 -31 -87 -8 -79 10 4 15 4 11 1 -3 -3 8 -20 25
-36 35 -35 33 -37 77 67 63 152 100 401 81 551 -21 165 -48 243 -161 464 -58
114 -70 145 -70 186 0 39 6 55 29 84 29 35 29 63 1 57 -8 -2 -14 2 -15 7 0 6
-30 39 -65 75 -36 36 -74 84 -85 108 -11 23 -22 42 -25 42 -3 0 -6 30 -8 68
-5 115 31 168 125 182 108 17 163 -28 163 -130 0 -33 -6 -44 -34 -67 -19 -15
-32 -31 -30 -35 15 -24 93 7 131 51 30 34 44 103 30 149 -6 20 -11 41 -11 45
-2 18 -63 70 -101 87 -48 22 -127 31 -175 21z m-798 -1045 c7 4 8 2 4 -5 -9
-13 -26 -5 -25 12 0 9 2 8 6 -1 2 -6 10 -9 15 -6z m434 -448 c5 -7 3 -8 -6 -3
-10 6 -12 4 -6 -11 5 -14 4 -16 -5 -7 -6 6 -8 16 -5 22 9 14 13 14 22 -1z
m-43 -83 c-3 -9 -8 -14 -10 -11 -3 3 -2 9 2 15 9 16 15 13 8 -4z m277 1 c0 -2
-8 -10 -17 -17 -16 -13 -17 -12 -4 4 13 16 21 21 21 13z m-900 -120 c0 -2 -8
-10 -17 -17 -16 -13 -17 -12 -4 4 13 16 21 21 21 13z m-816 -594 c3 -5 -1 -9
-9 -9 -8 0 -12 4 -9 9 3 4 7 8 9 8 2 0 6 -4 9 -8z"/>
<path d="M4068 4389 c-31 -54 -43 -190 -30 -347 7 -78 15 -148 18 -156 5 -12
-4 -17 -35 -22 -23 -4 -41 -10 -41 -15 0 -5 -6 -6 -13 -3 -19 7 -183 -79 -180
-94 2 -6 -3 -9 -11 -6 -7 3 -19 -3 -27 -12 -13 -16 -10 -16 46 -9 86 12 165 6
165 -14 0 -4 -11 -14 -25 -21 -14 -8 -24 -19 -21 -26 3 -8 0 -11 -8 -8 -18 7
-126 -117 -126 -145 0 -28 11 -27 89 10 138 65 263 62 383 -10 66 -41 146
-115 179 -169 12 -17 25 -30 30 -27 5 4 6 0 3 -8 -3 -8 1 -21 8 -28 7 -8 22
-31 33 -51 11 -21 23 -38 27 -38 5 0 7 -3 6 -7 -1 -5 10 -31 25 -60 81 -157
111 -318 111 -609 l1 -222 49 -16 c28 -8 51 -14 53 -12 1 1 9 153 16 337 l13
335 28 48 c15 26 34 50 42 53 8 3 13 12 10 20 -3 8 -2 12 3 9 5 -3 34 6 65 20
117 54 228 28 267 -63 31 -72 23 -119 -29 -190 -21 -29 -22 -32 -5 -35 10 -3
31 3 46 11 25 14 29 14 37 1 14 -22 13 -26 -20 -63 -35 -40 -40 -59 -8 -31
l22 19 -20 -26 c-10 -15 -22 -23 -25 -17 -3 5 -23 -2 -44 -16 -21 -14 -42 -26
-46 -26 -5 0 -9 -4 -9 -10 0 -20 83 -10 127 16 36 21 43 29 38 47 -4 14 -3 18
3 9 6 -9 14 -6 31 12 12 13 23 30 25 37 1 8 8 25 15 39 24 42 26 150 5 216
-32 105 -143 195 -257 210 -52 7 -162 -16 -227 -47 -25 -12 -71 -49 -103 -82
-32 -33 -59 -58 -60 -56 -2 2 -12 27 -21 54 -51 141 -244 451 -274 440 -7 -3
-10 0 -7 6 9 13 -14 41 -28 32 -5 -3 -7 -1 -4 4 8 13 -27 46 -38 36 -4 -5 -5
-3 -2 3 3 6 -12 28 -35 50 -22 21 -37 32 -33 24 5 -9 4 -12 -1 -7 -5 5 -9 12
-10 15 -3 23 -19 42 -31 38 -8 -3 -12 -2 -8 3 3 5 -6 31 -19 58 -13 26 -32 77
-41 112 -31 119 9 154 50 44 40 -104 81 -156 240 -303 33 -30 77 -75 98 -100
37 -43 38 -44 31 -15 -38 170 -29 381 22 537 21 63 26 98 15 98 -14 0 -87 -88
-140 -167 l-48 -72 -29 18 c-30 19 -58 48 -62 66 -1 6 -8 28 -14 50 -6 22 -12
104 -12 182 0 124 -2 140 -16 133 -25 -13 -72 -112 -79 -165 -7 -61 -32 -72
-56 -25 -9 18 -21 28 -27 24 -7 -4 -8 -3 -4 4 4 6 2 29 -3 49 -6 21 -13 64
-16 96 -7 64 -21 72 -47 26z m470 -374 c-3 -3 -9 2 -12 12 -6 14 -5 15 5 6 7
-7 10 -15 7 -18z m-37 -18 c-10 -9 -11 -8 -5 6 3 10 9 15 12 12 3 -3 0 -11 -7
-18z m17 -652 c-3 -3 -9 2 -12 12 -6 14 -5 15 5 6 7 -7 10 -15 7 -18z"/>
<path d="M3736 4248 c-13 -51 3 -380 20 -397 9 -9 99 57 96 70 -2 8 -5 79 -7
159 l-4 144 -43 23 c-54 28 -54 28 -62 1z"/>
<path d="M891 3877 c-61 -95 -65 -110 -33 -140 35 -33 63 -37 77 -12 5 11 28
50 49 88 l38 68 -28 22 c-53 42 -59 41 -103 -26z m88 9 c-3 -3 -11 5 -18 17
-13 21 -12 21 5 5 10 -10 16 -20 13 -22z m-51 4 c-7 -10 -14 -18 -15 -16 -6 6
9 36 18 36 5 0 4 -9 -3 -20z"/>
<path d="M716 3473 c-3 -21 -9 -47 -12 -58 -4 -17 3 -24 34 -38 58 -26 67 -23
79 27 10 43 9 44 -21 60 -17 9 -41 23 -52 31 -21 15 -22 14 -28 -22z"/>
<path d="M3928 3449 c-39 -20 -42 -26 -32 -53 5 -14 11 -13 45 4 21 11 45 20
53 20 13 0 14 4 4 25 -13 30 -21 30 -70 4z"/>
<path d="M4020 3338 c-78 -35 -108 -53 -137 -81 l-32 -30 -22 27 c-21 27 -67
52 -77 41 -3 -3 3 -14 12 -24 21 -23 23 -75 11 -227 -7 -87 -5 -109 10 -152
10 -28 23 -48 28 -45 6 3 7 1 3 -6 -18 -29 107 -150 184 -178 48 -17 133 -16
205 3 33 8 71 17 85 19 23 3 24 3 6 -10 -44 -33 12 -97 96 -109 46 -7 58 -18
58 -56 0 -25 -35 -43 -77 -42 -34 1 -44 -11 -17 -22 9 -3 35 -6 58 -6 55 0 92
28 108 81 20 69 -24 151 -96 180 -17 7 -39 19 -48 27 -17 14 -17 16 0 31 14
12 47 57 67 88 1 2 19 -6 41 -16 21 -10 50 -22 63 -26 22 -7 23 -6 16 36 -9
58 -26 83 -67 100 -18 7 -37 17 -43 21 -51 42 -141 95 -154 91 -13 -4 -13 -3
-2 5 10 7 -2 21 -50 61 -58 46 -68 51 -114 51 -80 0 -88 -12 -37 -60 24 -22
48 -38 53 -35 5 4 6 0 4 -7 -5 -14 116 -116 175 -149 l30 -16 -25 -37 c-14
-20 -22 -44 -19 -53 5 -14 4 -15 -4 -4 -8 11 -14 10 -33 -7 -66 -62 -208 -70
-295 -16 -27 16 -59 45 -72 64 -13 19 -27 34 -30 33 -8 -2 -12 29 -14 122 -2
82 19 133 76 183 38 33 46 48 20 38 -9 -3 -12 -2 -9 5 4 5 15 7 24 4 10 -3 37
2 61 10 65 23 115 19 192 -17 50 -23 72 -28 80 -20 18 18 -16 75 -63 108 -37
25 -52 29 -123 31 -45 2 -92 -2 -106 -9z"/>
<path d="M684 2999 c8 -75 32 -195 44 -214 4 -5 7 -17 9 -25 1 -8 19 -54 39
-102 41 -96 49 -101 107 -72 18 9 33 18 35 19 2 2 -3 14 -12 27 -27 41 -83
211 -95 288 -21 134 -18 127 -59 133 -20 3 -46 8 -56 13 -18 7 -19 3 -12 -67z
m106 -294 c0 -5 -5 -3 -10 5 -5 8 -10 20 -10 25 0 6 5 3 10 -5 5 -8 10 -19 10
-25z"/>
<path d="M4063 2467 c-21 -21 -53 -39 -92 -51 -34 -10 -59 -21 -57 -25 2 -3
-8 -6 -22 -7 -15 -1 -78 -14 -139 -30 l-113 -29 0 -56 0 -56 63 -7 c34 -4 88
-14 120 -22 32 -8 62 -12 67 -9 6 3 10 2 10 -3 0 -6 12 -13 28 -17 43 -10 153
-75 185 -109 128 -136 89 -337 -82 -426 -37 -19 -132 -16 -176 6 -56 28 -77
62 -80 128 -1 31 0 54 2 52 2 -2 15 7 28 20 32 32 101 33 134 3 16 -15 26 -18
33 -11 16 16 1 58 -28 77 -31 20 -141 34 -130 17 4 -8 2 -10 -8 -6 -8 3 -28
-2 -44 -10 -67 -35 -95 -120 -72 -217 10 -40 24 -63 61 -101 51 -52 76 -64
157 -79 81 -15 182 15 249 74 12 11 20 24 17 28 -3 5 1 7 8 4 16 -6 70 64 63
83 -2 7 -1 11 4 8 13 -8 40 73 44 134 4 53 5 55 38 62 34 7 79 51 79 77 0 11
-3 12 -11 4 -7 -7 -21 -8 -41 -2 -17 4 -35 7 -42 6 -6 -1 -10 3 -9 10 2 6 -7
20 -20 30 -12 10 -44 44 -71 75 -26 32 -64 67 -83 79 -19 12 -32 23 -29 26 8
8 227 -27 299 -48 90 -27 178 -63 228 -95 22 -13 39 -22 39 -19 0 8 102 -99
130 -137 15 -21 31 -34 35 -30 5 4 6 2 2 -3 -3 -6 10 -41 28 -78 32 -64 35
-66 46 -45 17 32 24 150 10 176 -8 15 -8 23 0 28 26 16 221 -213 244 -287 4
-10 11 -16 17 -13 7 4 8 2 4 -5 -4 -6 2 -38 13 -71 26 -76 29 -214 5 -284 -14
-40 -15 -56 -5 -104 7 -31 13 -67 14 -80 1 -12 2 -22 3 -22 1 0 13 18 28 40
14 22 24 40 20 40 -3 0 2 7 11 16 9 10 14 25 12 36 -3 10 -2 16 3 13 11 -7 17
12 31 105 6 46 9 115 6 156 -10 109 -66 258 -120 316 -14 15 -23 29 -20 32 3
3 -40 50 -95 105 l-101 101 39 6 c22 4 37 10 34 15 -3 5 1 7 8 4 24 -9 92 40
120 86 18 28 31 65 34 100 l6 54 -26 -30 c-14 -16 -23 -37 -20 -45 3 -8 2 -11
-2 -7 -4 3 -20 -4 -35 -17 -83 -70 -240 -73 -474 -10 -77 21 -152 38 -167 38
-14 1 -25 3 -23 6 3 6 -192 49 -315 70 -30 5 -66 12 -80 14 -14 3 -32 5 -40 6
-11 0 -10 5 6 18 42 36 66 107 46 139 -5 8 -17 2 -39 -20z m-26 -153 c-3 -3
-12 -4 -19 -1 -8 3 -5 6 6 6 11 1 17 -2 13 -5z m836 -439 c-3 -9 -8 -14 -10
-11 -3 3 -2 9 2 15 9 16 15 13 8 -4z"/>
<path d="M2234 2465 c-36 -16 -104 -77 -104 -93 0 -7 14 -5 38 5 58 25 144 23
182 -5 17 -13 36 -20 42 -16 7 5 8 3 4 -5 -5 -7 -1 -20 7 -29 8 -9 20 -34 27
-54 22 -71 -14 -128 -130 -200 -30 -19 -63 -37 -72 -41 -10 -3 -18 -11 -18
-17 0 -6 -4 -8 -10 -5 -5 3 -22 -1 -38 -9 -42 -22 -136 -53 -217 -72 -48 -11
-113 -16 -208 -16 -112 1 -135 -2 -125 -12 7 -7 30 -32 51 -55 21 -23 42 -39
47 -36 6 3 7 0 5 -7 -5 -11 17 -13 119 -10 135 5 208 -10 319 -64 27 -13 54
-21 60 -17 6 3 7 1 4 -4 -8 -12 16 -24 36 -19 6 1 8 1 4 -2 -5 -2 16 -26 47
-54 119 -106 164 -290 91 -376 -13 -16 -23 -31 -20 -33 2 -3 -4 -6 -13 -7 -9
-1 -34 -4 -54 -8 -74 -12 -144 32 -155 99 -8 49 10 87 53 115 29 19 33 26 24
38 -19 21 -43 17 -88 -16 -52 -38 -74 -80 -74 -142 1 -80 86 -197 134 -185 11
3 16 1 11 -6 -4 -6 2 -8 15 -5 12 4 22 1 22 -4 0 -17 112 -2 157 21 114 58
172 221 129 364 -18 60 -85 161 -144 215 -42 38 -71 55 -57 33 3 -5 0 -13 -7
-17 -7 -4 -10 -4 -6 1 4 4 2 15 -5 23 -10 13 -9 14 3 8 13 -8 13 -7 0 7 -8 8
-42 30 -75 48 -33 17 -64 35 -69 39 -12 12 19 25 106 46 66 15 85 16 130 5
118 -27 157 -84 133 -195 l-8 -40 33 20 c18 10 41 35 51 54 20 36 27 116 9
105 -6 -3 -7 1 -4 10 7 17 -16 57 -54 92 -14 13 -23 24 -21 26 2 1 51 18 109
38 l105 35 3 61 3 61 -98 -34 c-114 -39 -149 -43 -138 -16 29 70 32 170 6 227
-22 48 -97 119 -117 111 -8 -3 -13 -2 -10 3 18 28 -123 41 -180 16z m366 -749
c0 -2 -8 -10 -17 -17 -16 -13 -17 -12 -4 4 13 16 21 21 21 13z m-240 -536 c8
-5 11 -10 5 -10 -5 0 -17 5 -25 10 -8 5 -10 10 -5 10 6 0 17 -5 25 -10z"/>
<path d="M1507 2419 c-10 -15 -37 -37 -62 -50 -24 -13 -42 -26 -40 -29 3 -5
-79 3 -128 12 -14 2 -24 -13 -46 -63 -15 -37 -40 -82 -54 -101 -15 -19 -24
-38 -19 -43 4 -5 2 -5 -4 -2 -6 4 -19 -2 -29 -13 -17 -19 -16 -21 37 -69 57
-52 101 -129 133 -231 18 -57 36 -270 23 -270 -5 0 -8 -11 -8 -25 0 -31 3 -31
46 2 53 40 84 109 84 184 l0 62 25 -23 c14 -14 44 -48 67 -77 22 -29 45 -50
51 -46 6 4 7 1 2 -6 -4 -7 1 -22 12 -34 49 -56 103 -216 103 -308 0 -67 0 -67
44 -103 24 -20 47 -36 51 -36 4 0 5 57 3 128 -4 99 -10 142 -28 195 -28 83
-113 233 -130 229 -6 -1 -9 2 -5 8 10 17 -6 34 -17 19 -7 -11 -8 -9 -4 4 3 10
0 25 -8 33 -8 8 -24 26 -35 40 -18 23 -23 25 -38 13 -16 -13 -17 -12 -4 4 12
15 5 26 -65 105 -43 48 -91 100 -106 116 -32 34 -36 51 -10 41 124 -48 302
-85 411 -85 36 0 107 9 156 19 103 20 248 77 238 93 -3 7 -1 8 5 4 12 -7 139
56 171 85 13 12 18 26 14 37 -7 20 -43 62 -54 62 -4 0 -48 -24 -96 -54 -49
-30 -132 -69 -184 -86 -84 -29 -109 -33 -234 -37 -133 -4 -146 -3 -255 27 -63
17 -124 32 -136 34 -26 3 -68 32 -57 39 4 2 28 8 53 12 34 6 55 18 89 51 28
28 41 49 37 59 -3 9 -2 13 4 10 12 -7 23 34 18 66 l-3 24 -18 -26z m-24 -64
c-3 -9 -8 -14 -10 -11 -3 3 -2 9 2 15 9 16 15 13 8 -4z m45 -580 c-3 -3 -9 2
-12 12 -6 14 -5 15 5 6 7 -7 10 -15 7 -18z m32 15 c0 -5 -2 -10 -4 -10 -3 0
-8 5 -11 10 -3 6 -1 10 4 10 6 0 11 -4 11 -10z m61 -133 c-10 -9 -11 -8 -5 6
3 10 9 15 12 12 3 -3 0 -11 -7 -18z"/>
<path d="M4550 1908 c-14 -40 -24 -79 -24 -85 1 -7 -2 -11 -6 -8 -11 7 -22
-43 -14 -57 4 -6 3 -8 -4 -4 -6 3 -14 -4 -18 -16 -4 -13 -20 -49 -35 -82 -16
-32 -26 -64 -22 -70 3 -6 3 -8 -2 -4 -8 8 -61 -52 -57 -65 1 -5 -2 -6 -8 -2
-5 3 -20 -1 -32 -9 -12 -9 -39 -16 -60 -16 -21 0 -38 -5 -38 -10 0 -15 45 -30
90 -30 39 0 60 -13 40 -25 -19 -12 -9 -30 27 -47 20 -9 39 -15 43 -13 7 5 86
162 138 275 34 75 102 254 102 270 0 10 -77 70 -89 70 -4 0 -18 -33 -31 -72z"/>
<path d="M926 1899 c5 -19 8 -66 8 -105 -1 -56 -6 -79 -23 -108 -13 -20 -20
-36 -18 -36 20 0 -130 -151 -182 -185 -52 -32 -78 -32 -93 0 -7 16 -17 24 -26
20 -12 -4 -12 -3 -3 9 7 9 8 17 2 20 -5 3 -11 3 -14 -1 -2 -5 -2 -2 0 6 5 20
-53 71 -81 71 -33 0 -36 -7 -20 -53 27 -77 28 -146 4 -258 -27 -118 -32 -303
-11 -379 19 -67 62 -160 72 -154 5 3 6 -2 3 -10 -11 -28 140 -166 228 -209
115 -57 208 -73 338 -59 58 7 106 16 108 21 2 6 9 8 16 5 29 -11 215 83 199
101 -5 4 -2 5 5 1 9 -5 33 12 73 51 l59 60 -22 61 c-18 48 -25 58 -36 50 -7
-6 -11 -17 -8 -24 3 -8 2 -13 -3 -11 -4 1 -32 -22 -62 -51 -94 -94 -216 -142
-359 -142 -212 0 -385 112 -456 295 -30 77 -27 233 5 300 13 28 23 54 22 58
-1 5 3 6 9 2 5 -3 13 0 16 8 10 28 114 71 181 75 153 10 258 -87 258 -238 0
-83 -36 -122 -127 -140 -21 -4 -35 -3 -32 1 3 5 -3 9 -14 9 -11 0 -40 18 -65
40 -25 22 -50 40 -55 40 -28 0 -24 -71 7 -120 17 -29 51 -64 51 -54 0 4 9 -1
19 -10 11 -10 25 -15 30 -11 6 3 11 1 11 -4 0 -6 22 -11 52 -11 98 0 209 78
239 168 7 20 9 68 6 116 -4 79 -17 118 -59 178 -10 14 -18 29 -18 33 0 7 36 3
80 -11 l25 -7 -19 22 c-11 12 -25 20 -32 17 -7 -3 -11 0 -8 7 6 16 -84 83
-155 115 -31 14 -58 27 -60 29 -3 1 6 14 18 27 14 15 20 30 16 37 -5 7 -4 10
2 6 33 -20 51 203 21 258 -19 35 -74 95 -87 95 -5 0 -17 3 -27 7 -15 6 -16 2
-8 -28z m-342 -475 c3 -8 2 -12 -4 -9 -6 3 -10 10 -10 16 0 14 7 11 14 -7z"/>
<path d="M4742 1400 c-13 -5 -21 -14 -17 -19 3 -6 -4 -8 -17 -6 -26 5 -92 -41
-82 -57 4 -6 3 -8 -3 -5 -13 8 -65 -68 -67 -99 0 -12 -5 -20 -10 -16 -5 3 -7
-2 -3 -11 3 -10 2 -17 -3 -17 -18 0 -10 -98 11 -157 26 -67 97 -144 162 -173
48 -22 139 -27 154 -7 6 6 15 31 20 55 l11 42 -65 0 c-78 0 -126 23 -163 77
-20 30 -25 49 -25 102 0 85 4 98 40 137 40 43 66 55 122 56 57 1 83 -25 83
-83 0 -32 -6 -43 -35 -66 -19 -15 -35 -31 -35 -35 0 -4 14 -15 30 -23 31 -16
75 -12 65 6 -3 5 0 6 8 3 14 -5 67 48 67 67 0 20 19 8 27 -18 14 -40 -3 -143
-47 -296 -49 -164 -57 -221 -40 -272 14 -41 75 -115 95 -115 7 0 26 -7 41 -15
34 -18 90 -20 100 -4 8 14 -16 31 -36 23 -8 -3 -11 -2 -8 2 4 4 -2 18 -13 32
-15 19 -17 28 -8 36 8 8 13 7 16 -1 7 -18 103 -17 130 2 11 8 23 23 25 33 5
17 1 19 -36 15 -40 -5 -42 -4 -66 38 -40 70 -42 82 -50 334 -5 192 -10 248
-24 278 -10 23 -21 35 -28 31 -7 -5 -8 -3 -4 5 9 14 -50 72 -93 91 -14 7 -35
17 -46 23 -27 14 -155 19 -183 7z m-82 -155 c0 -5 -5 -3 -10 5 -5 8 -10 20
-10 25 0 6 5 3 10 -5 5 -8 10 -19 10 -25z m360 -729 c0 -3 -4 -8 -10 -11 -5
-3 -10 -1 -10 4 0 6 5 11 10 11 6 0 10 -2 10 -4z"/>
<path d="M4000 1346 c-103 -39 -191 -119 -240 -219 l-30 -62 26 -3 c54 -7 88
7 117 48 16 23 25 45 21 52 -4 7 -4 10 1 6 4 -4 25 6 45 22 51 40 110 60 179
60 107 0 224 -51 289 -125 l29 -33 7 60 c6 63 2 83 -16 72 -6 -4 -9 -1 -6 7
10 30 -80 91 -167 114 -71 18 -207 19 -255 1z"/>
<path d="M4053 1005 c-79 -79 -171 -165 -205 -191 -35 -27 -64 -52 -66 -56 -2
-4 -9 -8 -17 -8 -7 0 -19 -8 -26 -17 -12 -15 -12 -16 1 -8 9 5 12 4 7 -1 -5
-5 -14 -9 -20 -9 -7 0 -41 -14 -77 -32 -73 -36 -125 -46 -125 -24 0 8 44 44
98 81 101 68 217 163 322 263 l60 57 -45 -24 c-25 -13 -64 -30 -87 -37 -23 -6
-41 -15 -39 -18 2 -3 -45 -6 -105 -7 -61 0 -104 3 -97 7 8 5 9 9 2 9 -6 0 -28
11 -48 25 l-38 26 7 -33 c4 -18 17 -49 31 -68 17 -25 20 -36 11 -42 -19 -12
-92 -9 -105 4 -9 9 -12 9 -12 0 0 -18 59 -75 90 -88 24 -11 24 -11 -15 -24
-27 -9 -70 -11 -147 -7 -62 4 -108 3 -108 -3 0 -13 51 -51 61 -44 5 3 6 -2 3
-10 -3 -9 2 -17 15 -21 44 -14 15 -41 -61 -57 -39 -8 -72 -8 -119 -1 -35 6
-66 9 -68 7 -2 -2 3 -14 12 -28 21 -31 83 -69 103 -62 8 3 12 2 9 -4 -8 -14
62 -30 132 -30 54 0 96 8 191 36 12 3 22 2 22 -3 0 -11 -28 -51 -62 -88 -22
-24 -25 -32 -15 -45 10 -13 10 -13 -5 -2 -17 14 -38 9 -38 -9 0 -10 30 -12 54
-3 9 3 13 10 10 15 -3 5 2 6 11 3 25 -10 224 133 217 157 -1 6 2 7 8 4 14 -9
181 155 173 168 -3 6 -1 7 4 4 6 -4 63 48 126 116 149 158 170 184 161 198 -4
8 -3 9 4 5 7 -4 12 -2 12 4 0 6 5 8 10 5 6 -4 9 -1 8 7 -3 13 -55 47 -73 47
-5 0 -74 -64 -152 -144z m-116 -234 c0 -11 -5 -18 -9 -15 -4 3 -5 11 -1 19 7
21 12 19 10 -4z m-242 -230 c3 -5 2 -12 -3 -15 -5 -3 -9 1 -9 9 0 17 3 19 12
6z"/>
<path d="M4410 840 c-17 -65 -67 -130 -99 -130 -19 0 -22 3 -13 12 14 14 17
98 4 98 -13 0 -47 -81 -44 -105 2 -14 0 -16 -6 -7 -7 11 -17 8 -46 -12 -44
-29 -134 -50 -177 -41 -27 6 -36 2 -69 -30 -43 -42 -41 -50 20 -75 51 -22 229
-20 301 2 57 18 107 57 144 113 15 23 20 47 20 105 0 41 -5 84 -12 95 -10 17
-12 15 -23 -25z"/>
</g>
</svg>
