<?xml version="1.0" standalone="no"?>
<!DOCTYPE svg PUBLIC "-//W3C//DTD SVG 20010904//EN"
 "http://www.w3.org/TR/2001/REC-SVG-20010904/DTD/svg10.dtd">
<svg version="1.0" xmlns="http://www.w3.org/2000/svg"
 width="847.000000pt" height="774.000000pt" viewBox="0 0 847.000000 774.000000"
 preserveAspectRatio="xMidYMid meet">
<metadata>
Created by potrace 1.16, written by Peter Selinger 2001-2019
</metadata>
<g transform="translate(0.000000,774.000000) scale(0.100000,-0.100000)"
fill="#000000" stroke="none">
<path d="M0 3870 l0 -3870 4235 0 4235 0 0 3870 0 3870 -4235 0 -4235 0 0
-3870z m8145 3719 c53 -14 136 -99 153 -155 25 -84 16 -7088 -9 -7144 -27 -60
-74 -107 -134 -136 -55 -26 -7714 -39 -7807 -14 -59 17 -120 69 -150 129 -31
60 -46 7073 -16 7172 15 52 73 117 122 140 49 22 7760 30 7841 8z"/>
<path d="M353 7470 c-18 -10 -40 -31 -50 -47 -30 -45 -28 -7051 2 -7103 52
-89 -379 -80 3950 -78 4305 3 3877 -5 3920 78 23 44 23 7056 0 7100 -9 17 -33
39 -55 50 -61 31 -7716 32 -7767 0z m413 -139 c85 -23 168 -125 190 -231 l11
-55 17 59 c61 208 206 122 241 -143 26 -195 17 -277 -23 -196 -44 90 -134 166
-220 186 -33 7 -33 7 13 -33 52 -46 83 -101 114 -202 24 -79 24 -79 -15 -66
-16 5 -89 19 -161 30 -186 28 -288 88 -307 180 -14 73 22 97 131 87 65 -6 65
-6 14 41 -74 70 -102 138 -109 267 -5 116 -14 109 104 76z m6115 -185 c116
-107 119 -109 119 -48 0 120 34 139 104 61 66 -74 90 -157 84 -290 -6 -121
-10 -127 -85 -122 -121 9 -189 57 -238 165 l-28 63 -25 -65 c-33 -86 -34 -178
-4 -237 29 -57 30 -56 -32 -51 -122 10 -246 150 -246 276 0 69 31 77 123 31
36 -19 52 -10 28 17 -55 60 -52 275 6 387 14 28 14 28 63 -41 26 -37 86 -103
131 -146z m937 110 c-6 -125 -39 -207 -112 -274 -45 -41 -45 -41 35 -35 91 7
119 -7 119 -59 0 -107 -111 -188 -280 -203 -36 -3 -98 -13 -138 -21 -87 -19
-88 -18 -73 43 27 107 95 213 149 234 46 18 14 21 -42 5 -83 -24 -133 -68
-182 -161 -53 -98 -59 -89 -51 74 18 344 170 494 251 246 23 -70 23 -70 30
-16 13 102 63 187 133 228 37 21 65 29 157 42 5 0 7 -46 4 -103z m-6017 17
c32 -100 36 -231 10 -307 -25 -71 -25 -71 25 -46 96 47 107 42 102 -46 -9
-149 -119 -263 -254 -264 -42 0 -42 0 -18 58 32 77 30 139 -6 227 -27 68 -50
69 -50 4 0 -90 -289 -200 -311 -119 -44 158 49 440 144 440 9 0 37 -99 37
-132 0 -60 168 79 258 215 33 50 38 48 63 -30z m1236 35 c150 -56 224 -193
193 -361 -13 -65 3 -115 43 -141 46 -31 107 15 107 82 0 112 134 220 136 109
1 -35 12 -76 35 -127 121 -270 -106 -529 -293 -334 -63 66 -64 65 -64 -54 -1
-212 -6 -226 -81 -219 -80 8 -76 4 -63 63 13 55 28 264 20 264 -3 0 -14 -13
-23 -30 -152 -256 -407 -136 -407 192 0 136 -26 191 -100 213 -25 8 -25 8 10
21 122 44 239 -4 324 -133 52 -80 116 -64 116 30 0 48 -11 69 -68 131 -45 48
-45 48 -38 160 10 188 10 188 153 134z m3236 -76 c66 -27 108 -60 148 -116 40
-54 38 -56 -40 -56 -355 0 -707 -300 -779 -663 -16 -79 -16 -79 -46 -72 -71
14 -198 25 -307 25 -237 0 -420 84 -520 240 -16 24 -16 24 -34 -22 -43 -113
-9 -296 78 -418 24 -35 24 -35 -87 -66 -61 -17 -120 -35 -130 -39 -12 -5 -17
-5 -13 1 13 22 -52 275 -112 429 -123 319 -434 566 -728 577 -55 2 -55 4 20
89 34 39 71 82 82 95 30 38 2374 34 2468 -4z m834 -547 c90 -41 114 -126 63
-226 -17 -33 -32 -43 -94 -63 -78 -26 -186 87 -186 194 0 125 77 159 217 95z
m-5541 4 c74 -82 -4 -273 -122 -295 -125 -23 -211 191 -110 275 52 43 199 56
232 20z m4979 -31 c77 -30 263 -175 244 -191 -24 -22 -157 -61 -224 -66 -80
-6 -80 -6 -44 -29 67 -41 186 -35 281 14 49 25 31 1 -75 -104 -122 -120 -196
-162 -292 -164 -101 -3 -141 66 -83 146 11 16 17 27 12 24 -141 -69 -231 -73
-362 -17 -84 37 124 200 276 215 62 7 62 7 17 55 -103 110 66 189 250 117z
m-4412 8 c86 -31 96 -66 37 -130 -41 -44 -41 -44 24 -51 123 -13 349 -166 299
-202 -72 -53 -238 -65 -323 -24 -41 20 -41 20 -33 -2 71 -202 -171 -186 -379
24 -112 113 -119 128 -46 94 93 -43 202 -42 257 3 21 17 20 17 -41 18 -53 1
-193 45 -227 71 -8 6 54 64 122 115 120 89 219 116 310 84z m-1608 -28 c51
-18 92 -22 265 -28 225 -8 263 -16 356 -76 89 -56 131 -109 148 -188 11 -51
11 -51 92 -47 229 8 379 -104 438 -331 10 -37 31 -88 47 -113 38 -60 37 -65
-12 -65 -82 0 -119 19 -208 108 -95 95 -95 95 -76 22 25 -93 20 -203 -7 -195
-205 61 -305 215 -248 381 57 164 -61 213 -232 96 -205 -140 -464 -60 -304 94
44 42 44 42 -27 46 -123 7 -203 62 -256 177 -29 62 -51 141 -39 141 2 0 31
-10 63 -22z m7484 -25 c-30 -166 -161 -282 -307 -272 -50 4 -50 4 -6 -43 137
-146 -82 -235 -272 -111 -197 129 -341 81 -264 -88 62 -138 -101 -369 -260
-369 -13 0 -13 142 0 195 13 58 7 56 -73 -23 -80 -79 -140 -112 -207 -112 -65
0 -76 11 -44 41 34 32 58 80 78 156 53 210 221 326 450 311 74 -5 74 -5 80 36
13 80 87 170 177 217 90 45 119 51 324 59 163 6 210 11 255 28 79 29 79 29 69
-25z m-4059 -80 c-107 -338 -587 -673 -839 -585 -72 25 -5 -26 106 -82 110
-55 258 -70 418 -41 98 17 98 18 29 -43 -167 -149 -441 -211 -669 -153 -92 24
-262 88 -270 102 -4 5 -11 9 -17 9 -6 0 17 -29 50 -64 89 -96 105 -183 52
-286 -22 -43 -22 -43 -45 4 -131 272 -525 272 -935 1 -77 -51 -87 -55 -114
-45 -16 6 -60 13 -98 17 -82 7 -81 8 92 152 564 469 722 521 1124 372 130 -49
134 -48 54 12 -116 87 -254 139 -371 141 -81 1 -77 5 58 72 160 78 218 89 455
86 394 -4 585 67 860 317 73 66 77 67 60 14z m1029 -235 c61 -21 85 -23 301
-24 313 -2 477 -49 651 -185 56 -44 56 -44 -45 -44 -138 -1 -304 -57 -406
-137 -44 -35 -36 -38 35 -12 444 161 707 80 1265 -392 147 -124 145 -118 35
-132 -95 -13 -95 -13 -201 53 -397 250 -744 273 -946 62 l-58 -59 0 65 c0 94
29 165 93 229 61 60 65 60 -138 -18 -289 -112 -464 -120 -597 -28 -37 26 -97
100 -87 107 2 2 32 13 66 26 177 63 371 171 308 171 -227 0 -462 184 -482 376
-6 55 -6 55 67 10 40 -25 103 -56 139 -68z m-3808 -217 c48 -48 41 -80 -42
-197 -138 -192 -213 -385 -239 -613 -12 -105 -12 -105 -61 -159 -27 -30 -61
-74 -75 -98 -37 -63 -41 -57 -49 64 -27 385 79 819 237 969 72 69 178 85 229
34z m6334 5 c201 -94 345 -559 345 -1117 l0 -191 -49 99 c-28 54 -68 122 -90
152 -37 49 -41 61 -41 111 0 241 -123 545 -324 803 -98 125 4 216 159 143z
m-2553 -99 l66 -43 -108 -33 c-480 -148 -695 -477 -469 -719 21 -23 21 -23 -1
-47 -85 -91 -207 -68 -293 55 -17 24 -18 23 -13 -70 7 -148 52 -280 132 -384
45 -59 39 -66 -50 -66 -186 0 -334 68 -402 186 -11 18 -13 18 -30 2 -93 -82
-236 -87 -301 -9 -30 35 -29 37 15 45 90 14 160 98 188 224 31 140 105 247
200 287 48 20 49 18 22 -41 -55 -119 -24 -327 62 -409 40 -38 43 -32 23 56
-88 404 131 764 572 939 208 83 294 89 387 27z m-142 -226 c0 -5 18 -36 40
-69 99 -148 296 -198 536 -137 54 14 99 25 100 25 1 0 4 -37 6 -82 3 -46 8
-90 12 -99 6 -15 1 -15 -51 3 -80 27 -212 21 -348 -17 -119 -33 -185 -31 -263
9 -52 26 -52 26 -52 -57 0 -111 38 -220 94 -266 14 -12 13 -17 -16 -49 -110
-126 -138 -448 -42 -488 62 -26 206 -2 257 43 16 15 17 14 17 -6 0 -63 74
-156 153 -191 52 -23 67 -20 67 13 0 57 62 147 133 192 29 19 43 -1606 17
-1920 -103 -1205 -836 -2083 -1815 -2174 -892 -83 -1697 740 -1378 1409 262
548 1111 471 1265 -114 119 -453 -307 -825 -615 -537 -42 40 -43 36 -15 -59
67 -223 386 -368 708 -321 443 65 754 442 875 1061 58 297 57 272 62 2060 4
1645 4 1645 56 1684 82 61 197 112 197 87z m-2168 -341 c45 -30 47 -46 12 -80
-30 -27 -18 -37 49 -39 59 -2 304 -101 322 -131 11 -18 25 -11 25 13 1 98 131
206 248 207 81 0 272 -72 272 -103 0 -67 -169 -190 -263 -191 -53 -1 -53 -1
14 -66 94 -92 137 -240 73 -256 -122 -31 -274 34 -318 136 -12 28 -15 30 -16
13 -1 -97 -123 -259 -160 -213 -134 166 -143 328 -20 364 45 13 45 13 13 29
-192 100 -476 98 -700 -3 -57 -26 -133 15 -133 72 0 20 273 108 332 108 54 0
141 66 185 140 10 17 20 29 23 28 3 -2 22 -14 42 -28z m2772 -81 c117 -21 201
-77 251 -166 31 -56 32 -54 -35 -41 -173 31 -339 -28 -431 -156 -41 -55 -36
-62 16 -26 457 315 995 -95 846 -645 -69 -255 -341 -595 -475 -595 -20 0 -5
359 14 365 62 20 186 152 245 260 42 77 45 76 45 -13 0 -104 -34 -212 -101
-323 -57 -95 -50 -99 25 -18 306 330 80 845 -313 714 -88 -29 -231 -173 -231
-233 0 -24 -59 36 -76 77 -16 39 -18 108 -4 147 15 40 7 40 -57 0 -136 -83
-235 -105 -260 -56 -61 121 37 372 172 443 30 16 30 16 0 17 -72 1 -158 88
-172 173 -5 36 -5 36 68 30 60 -4 92 -1 169 20 143 39 208 44 304 26z m1713
-25 c751 -155 978 -1146 452 -1975 -201 -318 -381 -490 -542 -520 -84 -15 -86
-9 -13 44 703 516 971 1644 485 2039 -404 328 -1077 104 -955 -316 21 -71 25
-68 -53 -43 -241 77 -294 378 -101 581 162 172 451 247 727 190z m-5402 -29
c425 -146 541 -633 178 -745 -79 -24 -80 -24 -57 37 121 316 -234 570 -629
449 -777 -239 -594 -1427 332 -2151 l64 -50 -78 -3 c-244 -9 -767 677 -891
1171 -198 786 417 1522 1081 1292z m5411 -342 c3 -16 12 -52 20 -81 79 -287
101 -763 49 -1042 -19 -96 -97 -336 -116 -354 -9 -8 -10 -7 -5 9 90 252 25
1118 -110 1469 -6 16 19 22 103 25 50 1 53 -1 59 -26z m-5658 2 c2 -2 -5 -28
-16 -57 -70 -187 -101 -570 -71 -888 10 -112 62 -480 75 -530 26 -102 -125
260 -159 380 -88 313 -64 888 45 1094 9 16 109 17 126 1z m112 -45 c0 -5 -14
-51 -30 -102 -17 -51 -44 -147 -60 -212 -43 -173 -51 -171 -25 6 18 116 37
189 71 266 20 46 44 69 44 42z m182 -106 c19 -50 19 -50 -55 -214 -75 -164
-164 -391 -199 -505 -18 -60 -18 -60 -13 70 10 244 84 487 202 667 32 48 41
45 65 -18z m2051 -69 c47 -45 136 -96 190 -109 55 -13 27 -37 -106 -92 -70
-29 -134 -58 -142 -64 -15 -12 -15 -11 -65 170 -26 97 -26 96 18 110 20 7 41
16 47 21 5 5 10 9 10 9 1 0 23 -20 48 -45z m-2763 -452 c96 -365 240 -718 458
-1118 139 -256 142 -267 58 -176 -265 285 -535 852 -681 1432 -47 185 -47 185
6 269 l53 83 37 -185 c21 -103 51 -240 69 -305z m6544 365 c112 -192 -232
-1152 -583 -1625 -107 -144 -101 -122 62 214 288 594 436 1107 437 1512 0 27
30 -9 84 -101z m-3354 -179 c109 -49 171 -163 83 -152 -249 33 -479 -23 -616
-152 -21 -19 -43 -35 -49 -35 -11 0 -160 49 -166 55 -2 1 15 19 36 39 209 199
553 317 712 245z m-2196 -154 c209 -54 312 -228 336 -565 18 -245 29 -343 44
-395 37 -120 134 -227 237 -260 30 -9 61 -19 69 -22 44 -14 -48 -38 -150 -38
-125 0 -183 22 -264 102 -161 159 -206 322 -167 617 48 371 -394 509 -499 156
-28 -96 -25 -114 10 -54 55 97 112 128 220 122 55 -3 55 -3 14 -25 -321 -172
-111 -768 558 -1587 l57 -70 -61 -40 c-145 -94 -259 -234 -308 -376 -27 -78
-27 -78 -86 -46 -109 58 -201 125 -268 196 -78 83 -78 84 -23 109 76 34 122
43 201 39 94 -4 96 -8 -26 53 -259 130 -448 325 -465 483 -10 84 226 70 384
-24 44 -26 51 -25 26 3 -567 635 -453 1782 161 1622z m4569 0 c488 -127 536
-1098 78 -1588 -44 -48 -44 -48 0 -29 116 50 321 78 333 47 55 -146 -234 -427
-556 -540 -96 -34 -98 -32 25 -31 106 1 217 -32 217 -65 0 -118 -410 -353
-855 -490 -321 -99 -410 -151 -459 -270 -53 -129 64 -106 277 55 178 133 235
160 417 191 114 19 177 47 248 109 103 89 167 -10 67 -104 -35 -33 -33 -35 34
-32 208 12 412 -150 460 -365 11 -53 13 -53 -55 2 -500 408 -1403 114 -1879
-611 -60 -91 -60 -91 -134 -98 -86 -7 -231 -8 -231 -1 0 7 245 374 406 606
267 388 376 520 795 970 877 941 1127 1455 873 1796 -46 61 -106 103 -149 103
-30 1 -30 1 -2 16 100 54 251 -15 317 -144 28 -54 33 -49 19 19 -42 200 -203
296 -381 229 -159 -59 -222 -222 -174 -448 90 -418 -241 -762 -599 -622 l-60
24 67 12 c258 48 321 152 323 534 3 559 211 821 578 725z m-2416 -127 c26 -29
90 -96 144 -149 97 -95 97 -95 108 -219 13 -151 20 -144 -86 -75 -153 100
-285 220 -407 369 -64 80 -65 79 34 105 128 34 153 30 207 -31z m-691 -73
c111 -33 189 -112 201 -205 6 -40 6 -40 -46 -5 -387 260 -693 -300 -446 -818
35 -73 29 -78 -24 -25 -386 389 -147 1190 315 1053z m-21 -281 c-73 -120 -99
-458 -47 -603 3 -9 2 -13 -3 -9 -4 4 -14 3 -21 -2 -47 -40 -108 159 -108 355
-1 229 43 315 159 315 54 0 54 0 20 -56z m-592 -51 c-133 -271 -51 -570 243
-882 89 -94 88 -93 19 -70 -500 165 -708 895 -292 1024 76 24 77 23 30 -72z
m1189 39 c53 -23 105 -74 129 -127 22 -49 23 -48 -35 -29 -205 70 -429 -94
-454 -333 -9 -83 1 -231 18 -263 14 -27 -2 -25 -27 3 -266 290 34 899 369 749z
m-549 -666 c66 -27 107 -104 122 -231 12 -97 38 -201 66 -262 33 -75 36 -76
34 -20 -13 314 214 530 477 453 102 -29 218 -134 218 -197 0 -15 -7 -19 -32
-19 -85 0 -222 -67 -304 -147 -244 -240 -241 -567 10 -1067 79 -160 79 -160
42 -230 -32 -63 -112 -166 -119 -155 -2 2 -20 55 -41 118 -243 735 -827 1179
-1293 985 -42 -18 -42 -9 -2 66 135 253 445 311 698 131 34 -24 25 11 -20 85
-152 249 -56 574 144 490z m-2795 -140 c195 -67 287 -165 317 -338 18 -100 18
-101 38 -30 31 111 97 172 189 172 55 0 59 -5 74 -85 6 -33 19 -94 29 -135 39
-169 -68 -278 -210 -215 -31 14 130 -170 209 -237 85 -74 317 -227 441 -292
121 -63 122 -68 19 -45 -348 76 -609 237 -739 458 -36 60 -37 61 -57 17 -49
-102 -136 -158 -255 -164 -73 -4 -173 15 -173 33 0 1 9 22 19 46 11 24 25 72
31 105 24 121 88 184 188 184 49 0 48 13 -3 34 -84 35 -159 135 -191 253 -12
48 -12 263 0 263 2 0 35 -11 74 -24z m7066 0 c48 -191 -52 -448 -194 -498 -37
-12 -30 -28 13 -28 90 -1 157 -65 182 -172 9 -40 23 -93 32 -116 19 -49 15
-54 -47 -72 -141 -40 -291 20 -355 143 -28 54 -28 54 -78 -20 -152 -228 -391
-377 -702 -438 -171 -33 -173 -35 43 78 307 162 481 297 602 467 22 30 22 33
4 25 -151 -66 -244 65 -185 263 12 38 24 90 27 116 19 134 191 50 243 -117 19
-62 31 -59 31 7 0 155 123 298 314 367 66 23 63 23 70 -5z m-6703 -1151 c114
-41 166 -133 128 -231 -10 -27 -9 -27 8 -12 82 75 297 138 489 145 170 6 180
3 183 -65 2 -50 2 -50 -101 -45 -180 10 -545 -126 -436 -161 73 -24 71 -90 -3
-172 -109 -121 -128 -244 -52 -335 26 -30 26 -30 -3 -23 -146 35 -224 182
-181 341 14 52 14 52 -47 -4 -143 -132 -298 -195 -436 -177 -50 7 -50 7 -10
45 46 45 62 74 85 154 23 78 63 118 141 140 103 30 274 149 184 128 -160 -37
-304 22 -401 164 -38 54 -37 56 17 31 66 -29 113 -20 234 41 110 55 134 59
201 36z m6477 -41 c99 -52 147 -59 215 -30 20 8 37 14 37 12 0 -129 -256 -255
-430 -212 -35 8 -35 8 -2 -27 42 -43 111 -82 177 -98 104 -25 135 -54 163
-157 22 -79 59 -137 98 -154 37 -17 29 -25 -34 -32 -140 -16 -282 45 -426 183
-41 39 -66 58 -63 46 58 -196 24 -301 -121 -374 -53 -27 -61 -22 -31 19 62 82
31 218 -75 338 -79 89 -58 195 31 161 48 -18 -4 29 -67 61 -146 74 -224 94
-372 94 -138 1 -138 1 -138 52 0 51 0 51 38 58 173 28 463 -25 592 -110 51
-34 51 -34 45 10 -27 175 169 261 363 160z m-5507 -97 c27 -19 33 -29 29 -48
-7 -38 -6 -240 2 -276 8 -33 8 -33 -41 -33 -123 0 -350 -84 -466 -173 -71 -54
-66 -55 -53 13 36 201 211 350 411 350 68 0 68 0 43 33 -56 73 5 182 75 134z"/>
</g>
</svg>
